<?xml version="1.0" encoding="utf-8"?>
<!-- Generator: Adobe Illustrator 17.0.0, SVG Export Plug-In . SVG Version: 6.00 Build 0)  -->
<!DOCTYPE svg PUBLIC "-//W3C//DTD SVG 1.1//EN" "http://www.w3.org/Graphics/SVG/1.1/DTD/svg11.dtd">
<svg version="1.1" xmlns="http://www.w3.org/2000/svg" xmlns:xlink="http://www.w3.org/1999/xlink" x="0px" y="0px"
	 width="697.591px" height="511.582px" viewBox="106.933 9.534 697.591 511.582"
	 enable-background="new 106.933 9.534 697.591 511.582" xml:space="preserve">
<g id="Layer_2" display="none">
	<rect x="106.933" y="9.534" display="inline" fill="#4DD654" width="697.591" height="511.582"/>
</g>
<g id="Layer_1" xmlns:inkscape="http://www.inkscape.org/namespaces/inkscape">
	<g id="RenderLayer_LineSet" inkscape:label="RenderLayer_LineSet" inkscape:groupmode="lineset">
		
			<g id="fills" inkscape:label="fills" xmlns:inkscape="http://www.inkscape.org/namespaces/inkscape" inkscape:groupmode="layer" opacity=".9">
			<path fill="#009688" d="M351.617,22.737l1.37,34.131l-37.695-27.48l10.383,60.228l-22.103,2.112l8.487,23.628l-32.231,4.026
				l-0.069,0.242L148.214,74.769l55.789,48.212l-85.016-14.85l118.987,91.649l-28.562,11.917l7.32,1.856l-109.799,17.812
				l75.773,13.306l-42.02,19.364l51.632,2.574l-11.869,7.118l58.451,4.155l18.546,4.489l-105.563,80.625l147.695-36.811
				l-58.291,44.372l56.299-15.036l-0.906,3.77l5.857,0.145l-0.585,24.66l-90.115,94.709L348.847,375.69l27.87,1.574l-2.958,66.048
				l30.76-13.911l-4.238,17.064l49.39-26.44l0.614-1.052l29.797,102.144l57.864-97.305l33.551-9.426l5.25,3.134l5.852-6.254
				l2.989-0.84l-0.344-1.986l18.893-20.194l51.733,36.576L635.5,377.976l16.743,2.375l36.377,16.821l-6.592-12.597l42.233,5.991
				l-59.492-67.955l39.582,1.802l-21.857-19.977l59.607-9.483l-29.668-30.194l0.972-0.506l91.12-12.063l-88.327-18.996l0.054-5.044
				l20.08-5.18l3.483-24.928l-62.497-20.549l14.16-12.463l-7.685-1.215l92.565-77.13L643.83,99.308l7.894-44.235L597.455,87.8
				l8.39-31.797l-43.602,28.601l-8.851-21.035l-32.21,8.762l2.366-23.324l-17.121,5.345L488.079,9.534l-19.072,56.499l-3.809,1.189
				l-2.995,8.691l-33.937-22.968L415.2,33.884l-13.502,37.314l-7.047,1.039L351.617,22.737z"/>
		</g>
		<g id="strokes" inkscape:label="strokes" inkscape:groupmode="layer" opacity="0.5">
			<path fill="#FFFFFF" stroke="#FFFFFF" stroke-miterlimit="10" d="M441.105,397.18l0.183,0.958l0.611,3.206l1.702,8.923
				l1.703,8.924l0.434,2.276l2.766-4.246l0.058-0.089l0.819-1.257"/>
			<path fill="#FFFFFF" stroke="#FFFFFF" stroke-miterlimit="10" d="M225.569,241.946l10.914-0.812l10.913-0.812l9.518-0.708
				l10.914-0.812l7.372-0.548l6.871-0.511l10.913-0.812l10.914-0.812l0.599-0.045l10.913-0.812l10.914-0.812l2.429-0.181l4.47-0.332
				l10.913-0.812l2.684-0.2l10.913-0.812l9.454-0.704l-9.903,3.869l-9.902,3.869l-6.642,2.595l-9.186,3.589"/>
			<path fill="#FFFFFF" stroke="#FFFFFF" stroke-miterlimit="10" d="M349.687,202.097l-0.883,0.284l-10.211,3.278l-9.075,2.913
				l-0.461,0.148l-4.484,1.44l-2.382,0.764l-10.211,3.279l-10.211,3.278l-8.636,2.772l-2.116,0.679l-4.972,1.597l-10.212,3.278
				l-7.321,2.35l-4.945,1.588l-9.75,3.13l-10.211,3.278l-9.674,3.106l-8.363,2.685l10.951,0.35l10.949,0.35l9.371,0.299l10.951,0.35
				l3.298,0.106l7.685,0.246l1.741,0.055l2.44,0.079l10.949,0.35l10.742,0.342l10.949,0.35l4.251,0.136l10.951,0.35l0.758,0.023
				l-2.326,2.529l-0.47,0.511l-1.351,1.47l-5.625,6.115l-6.62,7.198l-0.142,0.155l-5.245,5.703l-0.473,0.514l-3.155,3.43
				l-0.289,0.314l-5.356,5.825l-6.62,7.198l-1.946,2.116l-2.53,2.751l-3.182,3.461l-6.62,7.198l-0.401,0.435l-0.572,0.623
				l-0.384,0.416l-6.62,7.198l-4.689,5.097l10.769-1.677l0.999-0.155l10.768-1.677l10.769-1.677l3.468-0.54l0.449-0.07l3.614-0.564
				l0.665-0.103l6.058-0.944l4.339-0.676l4.357-0.678l2.348-0.366l4.744-0.739l10.768-1.677l10.768-1.677l10.768-1.677l10.768-1.677
				l6.301-0.982l10.768-1.677l3.728-0.581"/>
			<path fill="#FFFFFF" stroke="#FFFFFF" stroke-miterlimit="10" d="M661.946,182.02l1.583-1.32l6.659-5.549l7.707-6.422
				l0.422-0.351l5.474-4.561l7.707-6.422l7.707-6.422l7.707-6.422l7.707-6.422l7.706-6.422l7.707-6.422l7.707-6.422l7.707-6.422
				l7.707-6.422l7.707-6.422l7.707-6.422l7.79-6.492l-10.885,1.037l-10.886,1.037L743.7,89.797l-10.886,1.037l-10.886,1.037
				l-10.886,1.036l-10.886,1.037l-10.886,1.037l-10.886,1.036l-10.886,1.037l-10.886,1.037l-10.886,1.036l-1.897,0.181
				l-10.886,1.037l-10.886,1.037l-2.447,0.233l-10.479,2.64l-10.305,2.597l-6.854,1.727"/>
			<path fill="#FFFFFF" stroke="#FFFFFF" stroke-miterlimit="10" d="M368.622,85.511l-2.388-8.815l-2.389-8.816l-1.045-3.859
				l-2.388-8.815l-2.388-8.816l-2.389-8.816l-2.388-8.815l-1.631-6.021"/>
			<path fill="#FFFFFF" stroke="#FFFFFF" stroke-miterlimit="10" d="M416.854,97.776l-6.383-7.342l-2.104-2.42l-3.888-4.472
				l-5.116-5.886l-4.711-5.419l-6.383-7.342l-6.383-7.342l-6.383-7.343l-6.383-7.342l-6.383-7.342l-6.383-7.343l-4.735-5.446
				l0.362,9.028l0.363,9.029l0.363,9.028l0.283,7.047l0.363,9.029l0.074,1.851l0.363,9.029l0.363,9.028l0.044,1.088"/>
			<path fill="#FFFFFF" stroke="#FFFFFF" stroke-miterlimit="10" d="M383.644,164.304l-7.582-6.522l-7.582-6.522l-1.334-1.147
				l1.135-8.984l1.136-8.984l1.135-8.984l0.618-4.892l4.009,8.407l4.007,8.407l4.009,8.407l4.007,8.407l3.307,6.937"/>
			<path fill="#FFFFFF" stroke="#FFFFFF" stroke-miterlimit="10" d="M379.715,331.294l3.481-8.565l3.483-8.565l3.481-8.565
				l3.481-8.565l0.512-1.258"/>
			<path fill="#FFFFFF" stroke="#FFFFFF" stroke-miterlimit="10" d="M449.546,245.058l-7.332,6.713l-7.332,6.713l-7.332,6.713
				l-7.332,6.712l-7.332,6.713l-6.819,6.244l-1.953,1.788l-7.332,6.713l-2.628,2.406l-9.147,4.975l-9.147,4.975l-9.147,4.975
				l-9.147,4.975l-5.455,2.967l-7.913,4.302l-9.147,4.975l-9.147,4.975l-0.279,0.152l-9.147,4.975l-9.147,4.975l-4.463,2.427
				l-3.282,1.785l-9.147,4.975l-7.704,4.19"/>
			<path fill="#FFFFFF" stroke="#FFFFFF" stroke-miterlimit="10" d="M318.838,307.506l-1.364,1.845l-4.768,6.455l-2.011,2.721
				l-4.202,5.688l-2.042,2.763l-1.182,1.601l-4.773,6.461l-5.7,7.714l-5.699,7.715l-4.359,5.9l9.105-2.354l6.512-1.684l4.378-1.132
				l0.625-0.162l10.456-2.704l9.754-2.522l9.742-2.519l10.456-2.704l10.455-2.704l9.86-2.55l10.456-2.704l1.289-0.333l3.89-1.005
				l1.07,3.447l2.203,7.103l0.329,1.061l2.714,8.752l2.428,7.833l0.792,2.555l0.63,2.031l2.713,8.751l1.684,5.429l2.713,8.752
				l2.714,8.751l2.713,8.752l1.031,3.324l0.079,0.253l6.203-7.446l2.748-3.298l6.203-7.446l6.279-7.535l1.889-2.268l3.439-4.127
				l0.701-0.842l1.015-1.218l1.732-2.08l2.057-2.469l0.011-0.013l0.035-0.042l0.055-0.066l0.087-0.105l6.205-7.446l6.203-7.446
				l1.408-1.69l2.371-2.845l1.496-1.796l1.091-1.31l6.203-7.446l3.625-4.351l6.205-7.446l4.137-4.966l6.205-7.447l1.147-1.377"/>
			<path fill="#FFFFFF" stroke="#FFFFFF" stroke-miterlimit="10" d="M713.404,264.254l10.819-1.432l10.82-1.433l10.819-1.433
				l10.82-1.432l10.819-1.433l10.82-1.433l10.819-1.432l10.82-1.433l4.563-0.604l-10.603-2.28l-10.603-2.281l-10.604-2.28
				l-10.603-2.281l-10.603-2.28l-10.603-2.281l-10.603-2.28l-10.603-2.28l-3.5-0.753"/>
			<path fill="#FFFFFF" stroke="#FFFFFF" stroke-miterlimit="10" d="M301.951,384.097l-6.763,7.108l-6.762,7.107l-6.763,7.108
				l-6.762,7.107l-6.763,7.108l-6.762,7.107l-6.763,7.108l-6.762,7.107l-6.763,7.108l-6.762,7.107l-6.763,7.107l-6.763,7.108
				l-6.762,7.107l-2.197,2.309l8.093-6.09l8.093-6.091l8.093-6.09l8.093-6.091l8.093-6.09l8.093-6.091l8.093-6.09l8.093-6.091
				l8.093-6.091l8.093-6.09l8.093-6.091l8.093-6.09l8.093-6.091l8.093-6.09l8.093-6.091l8.093-6.09l7.528-5.666l10.933,0.618
				l10.932,0.617l6.005,0.339"/>
			<path fill="#FFFFFF" stroke="#FFFFFF" stroke-miterlimit="10" d="M301.816,389.781l-7.014,6.94l-7.015,6.94l-7.014,6.94
				l-7.014,6.94l-7.014,6.94l-7.014,6.939l-7.014,6.94l-7.014,6.94l-7.014,6.94l-7.014,6.94l-7.014,6.94l-7.014,6.94l-5.807,5.744"
				/>
			<path fill="#FFFFFF" stroke="#FFFFFF" stroke-miterlimit="10" d="M453.668,347.911l9.876,3.916l1.547,0.613l5.081,2.015
				l1.776,0.705l7.104,2.817l0.608,0.241l1.759,0.697l0.041,0.016l9.876,3.916l1.906,0.756l9.874,3.915l9.876,3.916l9.833,3.9
				l6.018,2.387l1.164,0.462l0.184,0.073l1.947,0.771l0.15-0.68l0.011-0.052l0.96-4.351l1.96-8.888l1.854-8.404l1.961-8.888
				l1.502-6.814l1.96-8.888l1.083-4.905"/>
			<path fill="#FFFFFF" stroke="#FFFFFF" stroke-miterlimit="10" d="M571.496,414.385l5.25,3.134l5.852-6.254"/>
			<path fill="#FFFFFF" stroke="#FFFFFF" stroke-miterlimit="10" d="M299.578,326.185l-8.051,6.128l-8.05,6.128l-8.051,6.129
				l-8.051,6.128l-8.05,6.128l-8.051,6.129l-8.051,6.128l-1.936,1.474l10.425-2.784l10.425-2.784l10.425-2.784l10.426-2.784
				l10.425-2.784l4.175-1.116"/>
			<path fill="#FFFFFF" stroke="#FFFFFF" stroke-miterlimit="10" d="M298.354,352.332l-0.768,3.19l-0.906,3.77l5.857,0.145"/>
			<path fill="#FFFFFF" stroke="#FFFFFF" stroke-miterlimit="10" d="M400.282,446.465l3.316-8.61l3.315-8.609l0.432-1.121"/>
			<path fill="#FFFFFF" stroke="#FFFFFF" stroke-miterlimit="10" d="M573.546,330.751l6.275,1.487l10.532,2.495l2.365,0.56
				l4.085,0.968l3.046,0.722l4.372,1.036l10.531,2.495l4.971,1.178l7.994,1.894l7.492,6.591l7.492,6.592l0.237,0.209l7.492,6.591
				l7.492,6.592l7.492,6.592l7.404,6.515l7.492,6.592l7.492,6.592l0.816,0.718"/>
			<path fill="#FFFFFF" stroke="#FFFFFF" stroke-miterlimit="10" d="M443.316,395.081l2.348,8.051l2.562,8.783l1.155,3.957
				l0.56,1.92l0.255,0.874l0.065,0.225l0.024,0.081l2.562,8.783l2.562,8.783l2.562,8.782l2.562,8.783l2.562,8.783l2.562,8.783
				l2.562,8.783l2.562,8.783l2.562,8.783l2.562,8.782l2.562,8.783l1.614,5.534l4.824-8.111l4.823-8.111l4.824-8.112l4.824-8.111
				l4.823-8.111l4.824-8.111l4.823-8.112l4.824-8.111l4.823-8.111l4.824-8.111l4.823-8.112l4.807-8.083l10.372-2.914l10.372-2.914
				l10.373-2.914l2.434-0.684l1.952-0.548l9.15-2.571l2.989-0.84l-0.344-1.986l-1.551-8.943l-1.549-8.942l-1.551-8.943l-0.699-4.032
				l-0.321-1.855l-0.958-5.524l-0.319-1.845l-0.369-2.129l-1.29-7.441l-1.551-8.943l-0.557-3.217l-0.126-0.724l-0.292-1.679
				l1.579,0.73l4.851,2.243l1.095,0.507l4.938,2.283l1.085,0.502l9.558,4.419l9.557,4.419l9.557,4.42l9.558,4.419l6.691,3.094
				l9.557,4.42l9.557,4.419l0.55,0.254l9.557,4.42l9.558,4.419l9.557,4.419l7.706,3.564l-4.342-8.294l-2.251-4.302l-4.342-8.294
				l-4.341-8.293l-4.342-8.294l-4.341-8.294l-4.341-8.294l-4.342-8.294l-3.553-6.788l-1.019-1.947l-0.659-1.26l-0.228-0.434
				l-1.297-2.479l-1.013-1.934l-0.341-0.651l-3.495-6.677l-4.341-8.293l-0.648-1.238l8.207-2.862l2.026-0.706l2.122-0.741
				l0.174-0.061l1.948-0.679l10.093-3.519l5.578-1.946l7.206-2.513l-1.954-3.007l-1.326-2.041l-2.687-4.136l-5.172-7.964
				l-3.386-5.211l-4.348-6.694l-0.478-0.734l-5.172-7.964l-3.763-5.793l-0.501-0.771l-0.559-0.86l-3.155-4.857"/>
			<path fill="#FFFFFF" stroke="#FFFFFF" stroke-miterlimit="10" d="M639.389,303.109l-2.67-0.646l-10.516-2.542l-10.516-2.543
				l-10.514-2.543l-9.289-2.246l-2.172-0.525"/>
			<path fill="#FFFFFF" stroke="#FFFFFF" stroke-miterlimit="10" d="M373.563,356.722l0.13-0.593l1.952-8.889l1.394-6.344
				l0.225-1.022l1.417-6.451"/>
			<path fill="#FFFFFF" stroke="#FFFFFF" stroke-miterlimit="10" d="M378.681,333.422l-6.441,4.723l-1.153,0.845l-8.187,6.003
				l-8.188,6.003l-0.843,0.618l-8.188,6.003l-3.809,2.793l-8.188,6.003l-8.188,6.003l-8.188,6.003l-8.187,6.003l-7.305,5.356
				l0.135-5.684l0.214-9.031l0.215-9.031l0.157-6.598l0.044-1.861l0.03-1.257l0.051-2.152l0.055-2.338l0.015-0.629"/>
			<path fill="#FFFFFF" stroke="#FFFFFF" stroke-miterlimit="10" d="M378.681,333.422l1.034-2.128"/>
			<path fill="#FFFFFF" stroke="#FFFFFF" stroke-miterlimit="10" d="M230.255,253.02l5.665,1.183l10.623,2.218l9.95,2.078
				l10.623,2.219l10.428,2.177l4.521,0.944l5.045,1.053l10.623,2.219l7.801,1.629l3.77,0.787"/>
			<path fill="#FFFFFF" stroke="#FFFFFF" stroke-miterlimit="10" d="M331.557,245.33l-10.679,0.811l-0.354,0.027l-0.625,0.047
				l-10.912,0.828l-4.288,0.326l-10.912,0.828l-10.912,0.828l-0.51,0.039l-3.317,0.252l-10.912,0.828l-10.912,0.828l-0.563,0.042
				l-6.097,0.463l-10.912,0.828l-6.829,0.519l-2.568,0.194"/>
			<path fill="#FFFFFF" stroke="#FFFFFF" stroke-miterlimit="10" d="M316.981,197.291l-0.685,0.111l-10.751,1.744l-10.752,1.744
				l-8.18,1.327l-4.485,0.727l-0.803,0.131l-10.752,1.743l-5.328,0.864l-5.499,0.892l-0.31,0.05l-1.966,0.32l-5.612,0.91
				l-2.809,0.456l-10.751,1.744l-10.714,1.738l-3.154,0.511l-7.698,1.248l-10.752,1.744l-10.752,1.744l-10.752,1.744l-10.752,1.744
				l-10.751,1.744l-10.752,1.744l-10.752,1.744l-10.752,1.744l-10.752,1.744l-10.751,1.744l-2.279,0.369l10.717,1.882l10.718,1.883
				l10.717,1.882l10.718,1.882l10.717,1.882l10.718,1.882l11.467,2.013l10.717,1.882l10.718,1.882l9.47,1.663l4.822,0.846
				l10.718,1.882l1.103,0.193l8.943,5.22l5.436,3.173l0.574,0.335l8.943,5.22l4.907,2.863l0.193,0.113l8.198,4.785l0.502,0.294
				l8.943,5.219l0.662,0.387l-10.918-0.776l-4.389-0.312l-1.006-0.072l-10.918-0.776l-10.918-0.776l-0.508-0.036l-10.918-0.776
				l-10.918-0.776l-10.918-0.776l-10.918-0.776l-10.918-0.777l-3.863-0.275l8.861-5.314l3.008-1.804l0.001-0.001l0.914-0.548
				l1.027-0.615l8.861-5.315l8.861-5.315l6.452-3.87"/>
			<path fill="#FFFFFF" stroke="#FFFFFF" stroke-miterlimit="10" d="M277.556,280.63l0.112-0.007l5.612-0.376l10.923-0.731
				l6.301-0.422"/>
			<path fill="#FFFFFF" stroke="#FFFFFF" stroke-miterlimit="10" d="M503.102,306.966l9.376,4.676l9.375,4.676l9.376,4.676
				l1.997,0.995l7.898,3.939l2.458,1.226l9.376,4.676l9.375,4.676l6.971,3.476l4.727,2.358l-0.236-5.666l-0.247-5.926l-0.375-9.028
				l-0.375-9.029l-0.291-6.996l-0.179-4.31l-0.368-8.866l-0.027-0.657l-0.376-9.028l-0.038-0.943l-0.376-9.028l-0.184-4.442"/>
			<path fill="#FFFFFF" stroke="#FFFFFF" stroke-miterlimit="10" d="M574.029,342.343l-3.415-3.324l-7.08-6.894l-7.08-6.895
				l-7.08-6.894l-1.96-1.91l-7.08-6.894l-7.08-6.894l-7.08-6.895l-7.08-6.894l-7.08-6.895l-7.081-6.894l-4.624-4.504"/>
			<path fill="#FFFFFF" stroke="#FFFFFF" stroke-miterlimit="10" d="M500.307,270.555l0.691,9.015l0.691,9.015l0.693,9.015
				l0.719,9.366l-10.513,2.55l-10.512,2.549l-10.512,2.55l-10.513,2.549l-10.988,2.665"/>
			<path fill="#FFFFFF" stroke="#FFFFFF" stroke-miterlimit="10" d="M403.53,408.088l4.368-8.284l4.368-8.284l3.143-5.961
				l3.127-5.933l4.368-8.285l1.608-3.049l0.279-0.53l2.151-4.08l0.153-0.29l4.368-8.284l4.368-8.284l1.59-3.015l4.368-8.285
				l4.367-8.284l3.907-7.409"/>
			<path fill="#FFFFFF" stroke="#FFFFFF" stroke-miterlimit="10" d="M449.546,245.058l-9.924,3.833l-9.923,3.833l-9.923,3.833
				l-9.923,3.833l-9.923,3.833l-9.924,3.833l-9.923,3.833l-9.923,3.833l-2.171,0.838l-3.473,1.342l-1.974,0.762l-7.061,2.728
				l-7.489,2.892l-9.924,3.833l-4.347,1.679l-2.52,0.974l-7.627,2.946l-9.923,3.833l-5.883,2.273l-9.923,3.833l-9.924,3.833
				l-9.923,3.833l-9.923,3.833l-1.14,0.44"/>
			<path fill="#FFFFFF" stroke="#FFFFFF" stroke-miterlimit="10" d="M266.35,180.354l-9.267,4.82l-9.268,4.82l-3.422,1.78
				l0.128,0.276l0.879,1.892l1.065,2.296l3.916,8.436l1.477,3.181"/>
			<path fill="#FFFFFF" stroke="#FFFFFF" stroke-miterlimit="10" d="M180.448,273.727l10.673-2.047l10.673-2.048l1.683-0.323
				l8.87-1.701l1.815-0.349l10.672-2.048l10.673-2.047l9.126-1.751"/>
			<path fill="#FFFFFF" stroke="#FFFFFF" stroke-miterlimit="10" d="M469.007,66.033l-3.809,1.189l-2.995,8.691"/>
			<path fill="#FFFFFF" stroke="#FFFFFF" stroke-miterlimit="10" d="M677.316,177.495l7.491-6.593l6.669-5.87l-7.685-1.215"/>
			<path fill="#FFFFFF" stroke="#FFFFFF" stroke-miterlimit="10" d="M736.331,222.972l-10.957-0.134l-9.066-0.111l-10.608-0.13"/>
			<path fill="#FFFFFF" stroke="#FFFFFF" stroke-miterlimit="10" d="M473.386,242.957l6.644-7.183l6.644-7.183l6.645-7.183
				l4.038-4.366l0.31-0.335l6.644-7.183l4.372-4.726l10.956-0.135l10.957-0.135l10.957-0.135l10.957-0.135l3.109-0.038"/>
			<path fill="#FFFFFF" stroke="#FFFFFF" stroke-miterlimit="10" d="M500.307,270.555l6.427-0.194l10.952-0.33l10.951-0.331
				l10.951-0.33l11.312-0.341l5.281-0.16l10.952-0.33l0.34-0.01l3.486-0.106l1.965-0.059l7.225-6.792l5.066-4.762l7.225-6.792
				l4.733-4.45l0.951-0.894l2.051-1.928l0.302-0.285l7.225-6.792l7.225-6.792l1.168-1.098"/>
			<path fill="#FFFFFF" stroke="#FFFFFF" stroke-miterlimit="10" d="M545.491,166.345l-10.596-2.305l-10.594-2.306l-10.596-2.305
				l-10.595-2.306l-9.301-2.023"/>
			<path fill="#FFFFFF" stroke="#FFFFFF" stroke-miterlimit="10" d="M493.809,155.099l-10.947,0.396l-3.103,0.112l-10.948,0.396
				l-10.671,0.386l-10.947,0.397l-10.947,0.396l-10.948,0.396l-10.947,0.396l-10.948,0.397l-10.947,0.396l-1.943,0.07l6.674,7.164
				l6.674,7.165l6.674,7.165l6.674,7.164l3.615,3.882l4.423,8.264l2.141,4.003l0.596,1.115l4.423,8.264l4.423,8.265l4.423,8.264
				l4.423,8.265l3.876,7.243"/>
			<path fill="#FFFFFF" stroke="#FFFFFF" stroke-miterlimit="10" d="M474.826,126.66l-2.95-8.699l-2.505-7.384l-1.349-3.979
				l-2.852-8.409l-1.592-4.697l-0.561-1.651l-0.067-0.199l-1.296-3.823l-1.762-5.196l-2.188-6.451"/>
			<path fill="#FFFFFF" stroke="#FFFFFF" stroke-miterlimit="10" d="M479.297,105.832l-1.042-1.432l-1.705-2.342l-1.483-2.036
				l-4.758-6.535l-1.755-2.411l-1.158-1.592l-0.639-0.876l-0.21-0.289l-0.511-0.702l-2.948-4.049l-2.291-3.147l-0.1-0.136
				l-2.994-4.113l-4.886,8.086l-1.445,2.392l-0.541,0.896l-4.792,7.928l-1.525,2.524l-0.305,0.505l-1.559,2.58l-1.704,2.82
				l-0.845,1.399l-2.15,3.557l-4.886,8.086l-4.886,8.086l-4.885,8.086l-1.186,1.961l9.729-4.158l1.497-0.64l9.728-4.158l0.252-0.107
				l0.599-0.256l1.576-0.674l0.407,0.022l10.934,0.587l10.935,0.587l7.064,0.379"/>
			<path fill="#FFFFFF" stroke="#FFFFFF" stroke-miterlimit="10" d="M243.87,119.889l8.949,5.214l8.947,5.215l6.746,3.93
				l6.085,3.546l8.948,5.214l5.79,3.374l8.947,5.214l5.199,3.03l8.948,5.214l1.591,0.927l5.114,2.98l6.105,3.558l2.451,1.428"/>
			<path fill="#FFFFFF" stroke="#FFFFFF" stroke-miterlimit="10" d="M533.225,321.991l-10.745-1.776l-10.743-1.777l-10.745-1.776
				l-10.745-1.777l-7.967-1.317l-10.666,2.072l-10.666,2.073l-10.887,2.116l7.052-6.915l7.051-6.915l7.051-6.915l7.052-6.915
				l7.051-6.915l7.051-6.915l7.052-6.915l0.888-0.87l-6.868-7.04l-6.866-7.04l-6.866-7.04l-6.321-6.479l-10.897,0.96l-10.896,0.961
				l-2.047,0.18l-8.447-5.754l-8.447-5.755l-8.447-5.755l-8.447-5.755l-8.447-5.755l-2.57-1.751l-3.081-7.336l-1.38-3.284
				l-3.586-8.535l-3.587-8.536l-3.586-8.535l-3.586-8.536l-2.296-5.466l-10.225-3.249l-10.225-3.248l-5.413-1.721l-1.935-0.615
				l-5.959-1.893l-10.225-3.249l-9.482-3.013l-7.494-2.382l-1.637-0.52l-10.225-3.249l-3.503-1.113l-10.225-3.249l-2.088-0.663
				l-10.224-3.249l-8.063-2.563l-10.225-3.249l-10.225-3.248l-10.225-3.249l-2.173-0.691l2.763,8.741l0.601,1.901l0.679,2.148
				l2.763,8.741l2.016,6.38l1.253,3.963l2.763,8.741l2.763,8.741l0.724,2.292"/>
			<path fill="#FFFFFF" stroke="#FFFFFF" stroke-miterlimit="10" d="M322.191,210.924l-3.292-8.616l-1.503-3.932l-0.414-1.086
				l3.236-8.63l0.654-1.742l3.236-8.63l3.237-8.629l0.347-0.925l-0.679,9.015l-0.678,9.016l-0.678,9.016l-0.198,2.624l-0.502,6.677
				l-0.382,5.078"/>
			<path fill="#FFFFFF" stroke="#FFFFFF" stroke-miterlimit="10" d="M148.214,74.769l9.545,4.438l9.545,4.438l9.545,4.438
				l9.545,4.438l9.545,4.438l9.545,4.438l9.545,4.438l9.545,4.437l9.545,4.438l9.545,4.438l3.138,1.46"/>
			<path fill="#FFFFFF" stroke="#FFFFFF" stroke-miterlimit="10" d="M352.987,56.867l-8.209-5.984l-8.208-5.984l-8.209-5.984
				l-8.209-5.984l-4.861-3.544l1.542,8.943l1.542,8.944l1.541,8.944l1.542,8.943L323,74.104l1.542,8.943l1.133,6.569"/>
			<path fill="#FFFFFF" stroke="#FFFFFF" stroke-miterlimit="10" d="M420.019,68.498l-10.787,1.59l-1.074,0.158l-6.46,0.952
				l-7.047,1.039"/>
			<path fill="#FFFFFF" stroke="#FFFFFF" stroke-miterlimit="10" d="M420.019,68.498l-1.711-8.922l-1.711-8.923l-1.235-6.441"/>
			<path fill="#FFFFFF" stroke="#FFFFFF" stroke-miterlimit="10" d="M465.027,77.824l-2.745-1.858l-0.079-0.053l-8.47-5.732
				l-8.47-5.732l-8.47-5.732l-8.528-5.772l-7.298-4.938l-5.605-3.794l-2.437,8.807l-2.438,8.806l-2.33,8.42"/>
			<path fill="#FFFFFF" stroke="#FFFFFF" stroke-miterlimit="10" d="M562.243,84.604l-3.591-8.534l-3.591-8.534l-1.669-3.967
				L542.986,66.4l-10.407,2.831l-10.406,2.831l-0.991,0.269l-5.276,1.436l-0.796,0.216l-0.582,0.158l-0.448-1.096l-3.504-8.559
				l-3.503-8.559l-0.645-1.575l-3.504-8.559l-3.503-8.559l-3.504-8.559l-3.503-8.559l-3.504-8.559l-0.828-2.024l-2.938,8.703
				l-2.938,8.703l-2.937,8.703l-2.938,8.703l-2.938,8.702l-2.937,8.703l-1.446,4.284l-2.938,8.703l-1.042,3.088l-1.94,5.744"/>
			<path fill="#FFFFFF" stroke="#FFFFFF" stroke-miterlimit="10" d="M493.809,155.099l-5.283-7.915l-5.283-7.914l-5.282-7.914
				l-0.938-1.406l-2.197-3.291l1.91-8.895l1.789-8.336l0.771-3.597l0.822-9.008l0.073-0.802l0.763-8.372l0.822-9.007l0.298-3.275
				l0.822-9.008l0.437-4.8l0.822-9.008l0.822-9.008l0.821-9.008l0.822-9.008l0.821-9.007l0.638-6.989"/>
			<path fill="#FFFFFF" stroke="#FFFFFF" stroke-miterlimit="10" d="M643.83,99.308l1.594-8.936l1.596-8.937l1.594-8.936
				l1.594-8.937l1.516-8.488l-8.844,5.333l-8.844,5.334l-8.843,5.333l-8.844,5.334l-8.844,5.333l-8.844,5.334l-1.204,0.725"/>
			<path fill="#FFFFFF" stroke="#FFFFFF" stroke-miterlimit="10" d="M586.13,130.727l-10.387,2.878l-10.387,2.877l-7.958,2.204
				l-4.299,1.191"/>
			<path fill="#FFFFFF" stroke="#FFFFFF" stroke-miterlimit="10" d="M586.13,130.727l1.093-4.143l1.902-7.208l0.225-0.851
				l0.852-3.229l1.772-6.717l0.756-2.864l2.329-8.827l2.329-8.826l0.069-0.262l2.329-8.826l2.33-8.827l2.329-8.826l1.403-5.317
				l-8.575,5.624l-8.575,5.625l-8.575,5.625l-8.574,5.625l-8.575,5.624l-0.729,0.478l-8.575,5.625l-8.575,5.625l-3.47,2.276
				l-8.575,5.625l-1.562,1.024l-0.936,0.614l-8.575,5.624l-3.87,2.539l-1.183,0.777l-1.586,1.04l-8.575,5.625l-0.21,0.137
				l8.831-4.867l1.422-0.783l2.813-1.55l9.11-5.021l3.106-1.712l2.653-1.462l9.11-5.021l0.544-0.299l9.11-5.021l9.11-5.02
				l1.879-1.036l4.019-2.215l-2.01,6.992l-2.526,8.79l-1.819,6.329l-1.221,4.249l-0.173,0.603l-0.444,1.542l-0.179,0.622
				l-1.031,3.59l-0.118,0.41l-2.526,8.79l-0.237,0.822l-2.526,8.79l-0.042,0.145l-0.308,1.072l-0.626,2.174l-2.526,8.79
				l-1.299,4.519l-1.304,4.538l-1.853,6.446"/>
			<path fill="#FFFFFF" stroke="#FFFFFF" stroke-miterlimit="10" d="M605.845,56.004l-5.668,7.731l-5.669,7.731l-5.668,7.731
				l-5.668,7.731l-5.669,7.731l-5.668,7.731l-1.132,1.545l-0.209,0.285l-5.669,7.731l-2.094,2.857l-0.302,0.413l-0.633,0.864
				l-2.765,3.77l-0.296,0.404"/>
			<path fill="#FFFFFF" stroke="#FFFFFF" stroke-miterlimit="10" d="M570.04,178.879l-4.654,8.178l-4.654,8.179l-4.653,8.178
				l-0.459,0.807l7.111,0.786l10.862,1.201l10.06,1.112l10.862,1.201l10.989,1.215l10.097,1.117l10.861,1.201l4.381,0.484
				l3.907,0.432l6.697,0.741l0.286,0.032l5.888,0.65l10.862,1.201l0.39,0.043l8.077,0.892l10.862,1.201l10.861,1.201l10.861,1.201
				l10.694,1.182l-4.525,1.285l-10.361,2.942l-10.361,2.942l-10.36,2.942l-6.502,1.846l-3.939,1.118l-1.673,0.475l-10.18,2.891
				l-8.083,2.295l-1.054,0.299l-9.025,2.563l-2.919,0.829l-10.361,2.942l-10.007,2.842l-10.361,2.942l-0.978,0.278l-4.147,1.177
				l-10.177,2.891"/>
			<path fill="#FFFFFF" stroke="#FFFFFF" stroke-miterlimit="10" d="M428.267,52.945l-5.391-7.864l-5.391-7.864l-2.284-3.332
				l-3.133,8.656l-3.132,8.656l-3.132,8.656l-3.132,8.656l-0.973,2.689"/>
			<path fill="#FFFFFF" stroke="#FFFFFF" stroke-miterlimit="10" d="M652.968,309.134l-0.911-9.002l-0.14-1.392"/>
			<path fill="#FFFFFF" stroke="#FFFFFF" stroke-miterlimit="10" d="M682.027,384.576l10.799,1.532l10.799,1.532l10.799,1.532
				l9.835,1.395l-6.413-7.325l-6.413-7.325l-6.413-7.324l-6.413-7.325l-6.413-7.325l-6.412-7.325l-6.413-7.325l-6.413-7.325
				l-6.413-7.325l-1.779-2.032l-6.413-7.325l-5.387-6.152l10.76-1.712l10.76-1.712l8.005-1.274l10.759-1.712l10.76-1.712
				l10.76-1.712l10.76-1.712l10.76-1.712l5.809-0.924l-6.897-7.02l-6.897-7.02l-6.897-7.02l-6.897-7.019l-2.08-2.116"/>
			<path fill="#FFFFFF" stroke="#FFFFFF" stroke-miterlimit="10" d="M182.706,244.671l-9.565,4.408l-9.564,4.407l-9.565,4.408
				l-9.565,4.408l-3.76,1.733l10.939,0.546l10.937,0.545l10.939,0.546l10.938,0.545l7.879,0.393"/>
			<path fill="#FFFFFF" stroke="#FFFFFF" stroke-miterlimit="10" d="M378.681,333.422l-0.306,6.834l-0.047,1.051l-0.404,9.027
				l-0.3,6.688l-0.047,1.06l-0.201,4.469l-0.404,9.028l-0.254,5.684l-0.404,9.028l-0.404,9.027l-0.404,9.027l-0.404,9.027
				l-0.403,9.027l-0.404,9.028l-0.404,9.027l-0.128,2.859l9.607-4.345l9.607-4.345l9.608-4.345l1.937-0.876l2.825-1.277l2.217-1.003
				l7.185-6.82l7.185-6.82l7.185-6.82l7.185-6.821l2.13-2.023l0.538-0.509l0.135-0.128l2.21-2.098l2.308-2.19l7.185-6.82
				l1.096-1.041l0.591-0.561l1.708-1.621l2.938-2.789l1.65-1.566l4.494-4.265l7.253-6.884l3.119-2.961l5.762-5.469"/>
			<path fill="#FFFFFF" stroke="#FFFFFF" stroke-miterlimit="10" d="M151.883,362.996l8.578-5.621l8.577-5.622l8.578-5.621
				l8.577-5.622l8.578-5.621l8.577-5.621l8.578-5.622l8.577-5.621l8.578-5.622l8.577-5.621l6.992-4.582l8.577-5.621l8.578-5.622
				l8.387-5.498l7.363-4.825"/>
			<path fill="#FFFFFF" stroke="#FFFFFF" stroke-miterlimit="10" d="M537.945,423.811l-1.761-8.916l-1.761-8.916l-1.761-8.916
				l-1.313-6.648l-1.761-8.916l-0.652-3.301l-0.014-0.071l-0.08-0.408"/>
			<path fill="#FFFFFF" stroke="#FFFFFF" stroke-miterlimit="10" d="M404.519,429.401l-2.197,8.85l-2.04,8.214l9.191-4.92
				l9.191-4.919l9.19-4.92l9.191-4.919l9.191-4.919l3.438-1.841l0.614-1.052"/>
			<path fill="#FFFFFF" stroke="#FFFFFF" stroke-miterlimit="10" d="M585.587,410.426l-1.082-1.199l-6.54-7.249l-6.539-7.248
				l-6.539-7.248l-6.54-7.249l-6.539-7.248l-1.221-1.353l-6.539-7.248l-6.54-7.249l-0.437-0.484"/>
			<path fill="#FFFFFF" stroke="#FFFFFF" stroke-miterlimit="10" d="M261.243,279.47l-3.798,2.901l-8.038,6.14l-8.038,6.139
				l-8.039,6.14l-8.038,6.139l-8.039,6.14l-8.038,6.139l-8.038,6.139l-8.039,6.14l-8.038,6.139l-8.038,6.14l-8.039,6.139
				l-8.038,6.14l-8.039,6.139l-1.065,0.814l10.489-2.614l10.489-2.614l10.49-2.614l10.489-2.615l10.489-2.614l10.489-2.614
				l10.489-2.614l10.489-2.614l10.489-2.614l10.489-2.614l10.489-2.615l10.489-2.614l10.489-2.614l11.334-2.825l3.77-0.939"/>
			<path fill="#FFFFFF" stroke="#FFFFFF" stroke-miterlimit="10" d="M237.974,199.779l-9.777,4.079l-9.777,4.08l-9.008,3.758
				l7.32,1.856"/>
			<path fill="#FFFFFF" stroke="#FFFFFF" stroke-miterlimit="10" d="M318.315,132.771l-10.126-3.453l-5.922-2.019l-10.125-3.452
				l-10.127-3.453l-1.901-0.648l-0.355-0.121l-10.126-3.453l-10.125-3.452l-10.126-3.452l-10.127-3.453l-10.125-3.452l-10.126-3.453
				l-10.126-3.452l-10.125-3.452l-10.126-3.453l-10.125-3.452l-10.127-3.453l-10.126-3.452l-10.031-3.421l7.563,6.536l7.564,6.536
				l7.563,6.536l7.563,6.536l7.564,6.536l7.563,6.536l7.563,6.536l2.844,2.457l1.986,1.716l7.563,6.536l7.564,6.536l1.168,1.009
				l7.563,6.536l7.564,6.536l7.563,6.536l7.563,6.536l7.654,6.614l5.079,7.273l1.077,1.542l3.742,5.358l0.361,0.517l0.891,1.275
				l0.301,0.432l3.086,4.418l0.359,0.515l5.052,7.235l1.986,2.842"/>
			<path fill="#FFFFFF" stroke="#FFFFFF" stroke-miterlimit="10" d="M651.725,55.073l-7.591,6.516l-7.59,6.515l-7.59,6.516
				l-7.591,6.516l-7.59,6.516l-7.591,6.516l-7.59,6.516l-5.865,5.034"/>
			<path fill="#FFFFFF" stroke="#FFFFFF" stroke-miterlimit="10" d="M616.593,183.497l-10.518-2.537l-10.517-2.537l-10.517-2.536
				l-10.518-2.537l-10.517-2.536l-10.518-2.537l-7.998-1.929"/>
			<path fill="#FFFFFF" stroke="#FFFFFF" stroke-miterlimit="10" d="M586.249,158.584l-10.677,2.033l-10.678,2.033l-10.677,2.032
				l-8.727,1.662l9.316,4.757l9.317,4.757l5.916,3.021l4.022,8.403l4.023,8.403l4.022,8.403l1.546,3.232"/>
			<path fill="#FFFFFF" stroke="#FFFFFF" stroke-miterlimit="10" d="M616.593,183.497l10.949-0.357l10.949-0.357l10.951-0.357
				l2.246-0.073l3.034-0.098l1.132-0.037l1.925-0.062l4.166-0.135"/>
			<path fill="#FFFFFF" stroke="#FFFFFF" stroke-miterlimit="10" d="M776.357,86.687l-8.829,5.35l-8.829,5.35l-8.829,5.35
				l-8.83,5.349l-8.829,5.35l-8.829,5.35l-8.83,5.35l-8.829,5.35l-8.829,5.35l-8.83,5.349l-8.829,5.35l-8.829,5.35l-8.83,5.35
				l-5.319,3.224l-4.349,2.635l-8.83,5.35l-0.154,0.094l-1.046,0.634l-8.829,5.349l-8.829,5.35l-7.625,4.62l-4.709-8.157
				l-4.709-8.157l-4.709-8.157l-4.709-8.156l-4.709-8.157l-4.709-8.157l-2.21-3.829"/>
			<path fill="#FFFFFF" stroke="#FFFFFF" stroke-miterlimit="10" d="M409.138,151.516l5.973-7.572l5.974-7.572l1.02-1.294"/>
			<path fill="#FFFFFF" stroke="#FFFFFF" stroke-miterlimit="10" d="M367.146,150.113l-10.503-2.574l-10.503-2.575l-10.503-2.575
				l-3.942-0.967l-3.869-0.948l-7.394-1.813l-5.859-1.436l-10.503-2.575l-6.525-1.6l-8.611-2.111l-10.503-2.575l-1.078-0.265
				l-10.503-2.574l-10.503-2.575l-9.546-2.34l-2.928-0.718"/>
			<path fill="#FFFFFF" stroke="#FFFFFF" stroke-miterlimit="10" d="M440.944,103.903l-10.471-2.663l-1.105-0.281l-1.514-0.385
				l-0.99-0.251l-10.011-2.546l-5.468-1.39l-6.961-1.77l-2.813-0.715l-7.443-1.892l-5.021-1.276l-10.471-2.663l-9.132-2.322
				l-0.435-0.11l-0.489-0.125l-10.885,1.041l-3.544,0.339l-10.886,1.04l-10.885,1.041l-6.748,0.645l-10.886,1.04l-10.885,1.041
				l-0.332,0.032l3.111,8.661l3.111,8.662l2.265,6.305l0.005,0.014l3.111,8.662l3.14,8.739l0.944,2.626l1.173,3.264"/>
			<path fill="#FFFFFF" stroke="#FFFFFF" stroke-miterlimit="10" d="M493.809,155.099l7.344-6.704l7.343-6.705l7.344-6.704
				l5.351-4.885l7.343-6.704l5.199-4.745l1.013-0.925l2.758-2.518l6.886-6.286l4.535-4.14l7.343-6.704l7.344-6.704l1.068-0.976
				l3.577-3.265"/>
			<path fill="#FFFFFF" stroke="#FFFFFF" stroke-miterlimit="10" d="M506.551,121.136l-3.238,8.63l-0.617,1.645l-0.148,0.393
				l-3.237,8.63l-3.238,8.629l-2.264,6.035"/>
			<path fill="#FFFFFF" stroke="#FFFFFF" stroke-miterlimit="10" d="M445.486,125.084l8.018,4.98l3.61,2.242l8.751,5.436
				l8.752,5.435l8.751,5.436l8.752,5.436l1.688,1.049l-10.944-0.463l-7.333-0.31l-10.944-0.463l-10.944-0.463l-10.943-0.463
				l-10.305-0.435l-10.944-0.463l-10.944-0.462l-1.37-0.059l8.218-5.975l8.218-5.975l1.447-1.052l7.437-5.408l8.218-5.975
				L445.486,125.084"/>
			<path fill="#FFFFFF" stroke="#FFFFFF" stroke-miterlimit="10" d="M616.093,227.782l8.759-0.602l1.328-0.091l6.568-0.452
				l2.662-0.183l0.244-0.016l10.92-0.751l3.501-0.241l10.92-0.751l0.342-0.023l10.92-0.75l10.921-0.751l10.92-0.751l10.921-0.751
				l5.206-0.359"/>
			<path fill="#FFFFFF" stroke="#FFFFFF" stroke-miterlimit="10" d="M673.462,285.034l9.267-4.821l9.266-4.822l9.267-4.821
				l9.267-4.821l1.901-0.989l0.972-0.506l5.102-2.655l-0.732-9.012l-0.272-3.339l-0.375-4.613l-0.007-0.076l-0.148-1.818
				l-0.732-9.012l-0.044-0.533l0.054-5.044"/>
			<path fill="#FFFFFF" stroke="#FFFFFF" stroke-miterlimit="10" d="M647.955,245.767l10.459-2.697l10.51-2.711l7.664-1.976
				l2.287-0.591l1.29-0.332l4.405-1.136l10.459-2.697l10.457-2.697l10.765-2.777l10.457-2.697l9.622-2.482l1.254-8.974l1.254-8.973
				l0.975-6.981l-10.178-3.347l-10.179-3.347l-10.178-3.347l-10.178-3.347l-10.179-3.346l-10.178-3.347l-1.427-0.469l-7.127-2.344"
				/>
			<path fill="#FFFFFF" stroke="#FFFFFF" stroke-miterlimit="10" d="M523.548,49.008l-2.701,8.754l-2.702,8.754l-2.239,7.252"/>
			<path fill="#FFFFFF" stroke="#FFFFFF" stroke-miterlimit="10" d="M312.059,115.356l-10.834,1.353l-10.834,1.353l-10.563,1.32
				l-0.069,0.242"/>
			<path fill="#FFFFFF" stroke="#FFFFFF" stroke-miterlimit="10" d="M118.987,108.13l10.677,2.032l10.677,2.033l10.678,2.033
				l10.677,2.033l10.678,2.032l10.677,2.033l10.678,2.033l10.677,2.032l1.586,0.303"/>
			<path fill="#FFFFFF" stroke="#FFFFFF" stroke-miterlimit="10" d="M521.183,72.331l0.914-9.001l0.913-9.001l0.539-5.321
				l-10.247,3.199l-6.874,2.146"/>
			<path fill="#FFFFFF" stroke="#FFFFFF" stroke-miterlimit="10" d="M204.003,122.981l-10.72-1.873l-10.72-1.873l-10.72-1.873
				l-10.719-1.873l-10.72-1.873l-10.72-1.873l-10.72-1.873l-9.974-1.742l8.006,6.167l8.007,6.167l8.007,6.168l8.006,6.167
				l8.007,6.167l8.007,6.168l8.006,6.167l8.007,6.168l8.007,6.167l8.006,6.167l8.007,6.168l8.006,6.167l8.007,6.167l8.007,6.168
				l6.892,5.308l8.007,6.168l3.068,2.364"/>
			<path fill="#FFFFFF" stroke="#FFFFFF" stroke-miterlimit="10" d="M289.407,291.16l-7.244-6.437l-4.404-3.913l-0.203-0.18
				l0.157,0.084l4.802,2.598l9.162,4.956l0.261,0.141"/>
			<path fill="#FFFFFF" stroke="#FFFFFF" stroke-miterlimit="10" d="M610.875,249.525l8.779,5.406l7.551,4.648l8.779,5.406
				l0.101,0.061l8.245,5.078l4.263,2.625l6.978,4.296l8.78,5.405l2.164,1.333l4.282,2.637l5.946,3.661l-9.702,0.232l-3.907,0.093
				l-6.632,0.158l-2.032,0.049l-4.716,0.113l-6.648,0.158l-4.768,0.114l-5.84,0.14l-10.953,0.261l-10.954,0.262l-10.954,0.261
				l-5.925,0.142"/>
			<path fill="#FFFFFF" stroke="#FFFFFF" stroke-miterlimit="10" d="M572.505,305.699l8.641-5.555l8.642-5.555l3.12-2.006
				l0.804-0.517l0.254-1.718l1.328-8.967l1.328-8.966l1.328-8.966l1.328-8.966l0.258-1.736"/>
			<path fill="#FFFFFF" stroke="#FFFFFF" stroke-miterlimit="10" d="M540.537,340.949l10.883,1.061l10.883,1.061l2.481,0.241
				l3.518,0.343l1.206,0.117l4.605,0.45l1.287,0.946l2.721,2.001l2.915,2.145l4.139,3.044l8.176,6.014l8.176,6.014l8.176,6.014
				l6.594,4.85"/>
			<path fill="#FFFFFF" stroke="#FFFFFF" stroke-miterlimit="10" d="M652.968,309.134l-0.928,0.379l-7.663,3.128"/>
			<path fill="#FFFFFF" stroke="#FFFFFF" stroke-miterlimit="10" d="M585.243,408.44l6.692-7.153l6.692-7.152l5.509-5.888
				l1.271-1.359l6.692-7.153l1.016-1.085l3.179-3.397l10.799,1.532l8.406,1.192l10.799,1.532l5.944,0.843"/>
			<path fill="#FFFFFF" stroke="#FFFFFF" stroke-miterlimit="10" d="M604.136,388.246l8.318,5.881l8.317,5.881l8.318,5.881
				l8.317,5.881l8.317,5.881l8.318,5.881l1.826,1.291l-3.697-8.504l-3.697-8.503l-3.697-8.504l-3.697-8.504l-3.697-8.503
				l-1.883-4.329"/>
			<path fill="#FFFFFF" stroke="#FFFFFF" stroke-miterlimit="10" d="M449.671,420.025l-1.109-2.894"/>
			<path fill="#FFFFFF" stroke="#FFFFFF" stroke-miterlimit="10" d="M348.847,375.69l8.02-6.155l8.02-6.155l2.641-2.026l6.035-4.631
				l4.013,1.361"/>
			<path fill="#FFFFFF" stroke="#FFFFFF" stroke-miterlimit="10" d="M241.286,370.557l8.753-5.434l8.753-5.434l8.753-5.434
				l8.753-5.434l8.753-5.434l8.753-5.434l4.688-2.91"/>
			<path fill="#FFFFFF" stroke="#FFFFFF" stroke-miterlimit="10" d="M704.35,324.414l-10.307-3.066l-10.308-3.065l-10.307-3.065
				l-10.308-3.066l-10.151-3.018l-3.029-8.682l-0.318-0.911"/>
			<path fill="#FFFFFF" stroke="#FFFFFF" stroke-miterlimit="10" d="M664.768,322.612l10.941,0.498l10.942,0.499l10.942,0.498
				l6.758,0.308l-7.339-6.708l-7.34-6.708l-7.179-6.561"/>
			<path fill="#FFFFFF" stroke="#FFFFFF" stroke-miterlimit="10" d="M480.082,521.116l0.753-9.011l0.753-9.012l0.753-9.011
				l0.754-9.011l0.753-9.012l0.753-9.011l0.753-9.012l0.753-9.011l0.753-9.011l0.753-9.012l0.753-9.011l0.753-9.011l0.753-9.012
				l0.753-9.011l0.753-9.012l0.78-9.346l0.009-0.107l0.753-9.011l0.324-3.872"/>
			<path fill="#FFFFFF" stroke="#FFFFFF" stroke-miterlimit="10" d="M213.611,250.098l-10.676,2.04l-10.676,2.041l-10.674,2.041
				l-10.676,2.04l-10.674,2.041l-10.676,2.04l-8.875,1.696"/>
			<path fill="#FFFFFF" stroke="#FFFFFF" stroke-miterlimit="10" d="M227.584,211.793l-10.958-0.059l-7.214-0.038"/>
			<path fill="#FFFFFF" stroke="#FFFFFF" stroke-miterlimit="10" d="M238.9,277.882l10.514,2.545l8.031,1.944"/>
			<path fill="#FFFFFF" stroke="#FFFFFF" stroke-miterlimit="10" d="M259.746,206.576l2.792-2.494l7.431-6.638l5.122-4.575"/>
			<path fill="#FFFFFF" stroke="#FFFFFF" stroke-miterlimit="10" d="M271.344,187.503l-6.363,1.008l-10.761,1.705l-9.827,1.556"/>
			<path fill="#FFFFFF" stroke="#FFFFFF" stroke-miterlimit="10" d="M303.712,309.862l-0.214,9.031l-0.104,4.387l-0.047,1.966
				l-0.079,3.334"/>
			<path fill="#FFFFFF" stroke="#FFFFFF" stroke-miterlimit="10" d="M278.708,313.757l-9.913,3.848l-9.914,3.849l-9.914,3.849
				l-9.914,3.849l-9.914,3.849l-9.913,3.849l-9.914,3.849l-9.914,3.849l-9.914,3.849l-9.914,3.849l-9.913,3.849l-9.914,3.848
				l-7.861,3.052"/>
			<path fill="#FFFFFF" stroke="#FFFFFF" stroke-miterlimit="10" d="M312.064,115.37l-6.143,7.48l-3.655,4.448"/>
			<path fill="#FFFFFF" stroke="#FFFFFF" stroke-miterlimit="10" d="M233.932,239.261l-10.926-0.68l-10.928-0.679l-10.928-0.679
				l-2.011-0.125l-8.359-0.519l-10.926-0.679l-10.928-0.679l-10.928-0.679l-10.926-0.68l-10.928-0.679l-10.928-0.679l-10.926-0.679
				l-7.358-0.457"/>
			<path fill="#FFFFFF" stroke="#FFFFFF" stroke-miterlimit="10" d="M302.58,357.576l-5.901,1.716"/>
			<path fill="#FFFFFF" stroke="#FFFFFF" stroke-miterlimit="10" d="M375.825,332.3l2.856,1.123"/>
			<path fill="#FFFFFF" stroke="#FFFFFF" stroke-miterlimit="10" d="M314.498,308.182l2.975,1.17"/>
			<path fill="#FFFFFF" stroke="#FFFFFF" stroke-miterlimit="10" d="M441.288,398.137l-0.318-0.829"/>
			<path fill="#FFFFFF" stroke="#FFFFFF" stroke-miterlimit="10" d="M446.038,95.474l-10.374,2.91l-7.809,2.191"/>
			<path fill="#FFFFFF" stroke="#FFFFFF" stroke-miterlimit="10" d="M515.111,73.983l-1.03-0.938"/>
			<path fill="#FFFFFF" stroke="#FFFFFF" stroke-miterlimit="10" d="M605.407,386.888l8.097,6.087l8.097,6.087l8.096,6.087
				l8.097,6.087l8.097,6.087l8.097,6.087l1.88,1.414"/>
			<path fill="#FFFFFF" stroke="#FFFFFF" stroke-miterlimit="10" d="M678.318,168.378l10.471-2.662l2.688-0.684"/>
			<path fill="#FFFFFF" stroke="#FFFFFF" stroke-miterlimit="10" d="M648.456,246.537l10.603,2.28l10.603,2.28l4.268,0.918
				l10.603,2.28l10.604,2.28l8.766,1.884l10.603,2.28l4,0.86"/>
			<path fill="#FFFFFF" stroke="#FFFFFF" stroke-miterlimit="10" d="M674.788,287.075l10.85,1.27l10.85,1.269l10.849,1.27
				l10.85,1.27l10.85,1.27l10.849,1.27l2.216,0.259"/>
		</g>
	</g>
</g>
</svg>
