<?xml version="1.0" encoding="utf-8"?>
<!-- Generator: Adobe Illustrator 17.0.0, SVG Export Plug-In . SVG Version: 6.00 Build 0)  -->
<!DOCTYPE svg PUBLIC "-//W3C//DTD SVG 1.1//EN" "http://www.w3.org/Graphics/SVG/1.1/DTD/svg11.dtd">
<svg version="1.1" id="Layer_1" xmlns="http://www.w3.org/2000/svg" xmlns:xlink="http://www.w3.org/1999/xlink" x="0px" y="0px"
	 width="960px" height="560px" viewBox="0 0 960 560" enable-background="new 0 0 960 560" xml:space="preserve">
<g display="none">
	<g display="inline">
		<path fill="rgba(255,255,255,.87)" d="M-83.962,799c0-320.272,0-640.545,0-960.909c426.854,0,853.745,0,1280.799,0
			c0,320.242,0,640.575,0,960.909C769.98,799,343.028,799-83.962,799z M491.626,176.564c-0.3-0.547-0.599-1.094-0.899-1.641
			c3.086-9.991,6.243-19.962,9.243-29.979c5.865-19.584,9.493-39.473,8.017-60.051c-0.582-8.113-3.417-12.43-11.335-13.484
			c-9.006-1.2-18.431-2.562-27.26-1.191c-34.041,5.284-64.581,19.38-92.44,39.472c-29.408,21.208-56.358,45.218-81.478,71.324
			c-21.665,22.516-41.124,46.758-57.4,73.474c-14.218,23.338-24.379,48.144-26.501,75.704c-0.741,9.626-0.752,19.312-1.6,28.926
			c-0.651,7.385-0.422,7.98,6.749,8.944c1.767,0.238,4.291,1.19,4.81,2.48c0.472,1.173-0.908,3.671-2.159,4.866
			c-12.036,11.507-24.608,22.478-36.272,34.346c-20.072,20.424-39.745,41.247-59.269,62.197
			c-5.185,5.564-9.684,11.916-13.658,18.419c-4.488,7.343-1.919,14.165,5.667,15.674c10.989,2.186,21.981,3.073,33.091-0.441
			c20.288-6.417,39.602-14.909,57.833-25.827c53.062-31.777,99.589-71.933,144.606-113.882
			c17.411-16.224,33.355-34.015,50.127-50.935c26.63-26.867,47.176-58.077,65.249-91.047c2.372-4.326,5.533-5.94,10.155-5.326
			c12.547,1.669,25.097,3.317,37.633,5.063c6.606,0.92,6.865,1.767,2.863,7.286c-14.037,19.356-25.869,39.99-35.525,61.856
			c-15.579,35.28-16.782,71.989-10.191,109.294c2.393,13.546,7.093,26.208,16.58,36.864c10.053,11.293,22.737,18.05,36.809,21.998
			c30.861,8.658,62.312,11.05,94.035,5.725c29.209-4.903,50.508-20.525,62.353-48.134c8.258-19.248,11.37-39.532,12.603-60.298
			c1.089-18.326-3.87-34.889-12.875-50.541c-12.754-22.168-28.822-41.454-48.56-57.847c-17.2-14.285-36.267-24.101-58.419-27.703
			c-3.451-0.561-6.901-1.2-10.293-2.038c-4.113-1.017-4.521-2.558-1.678-5.82c2.735-3.139,5.556-6.202,8.323-9.314
			c42.896-48.249,95.12-84.888,149.592-118.36c18.62-11.442,39.575-19.069,59.364-28.643c2.612-1.264,4.634-3.745,6.93-5.663
			c-2.841-1.998-5.669-4.017-8.542-5.97c-0.37-0.252-0.977-0.141-1.468-0.232c-11.857-2.205-22.988-0.501-33.886,4.936
			c-47.708,23.798-95.702,47.027-143.287,71.067c-33.754,17.052-67.005,35.097-100.537,52.591
			C496.609,175.805,494.003,175.965,491.626,176.564z"/>
		<path d="M491.626,176.564c2.377-0.599,4.983-0.758,7.097-1.861c33.532-17.493,66.784-35.539,100.537-52.591
			c47.585-24.04,95.579-47.269,143.287-71.067c10.898-5.436,22.029-7.141,33.886-4.936c0.491,0.091,1.097-0.02,1.468,0.232
			c2.872,1.953,5.7,3.972,8.542,5.97c-2.295,1.918-4.318,4.399-6.93,5.663c-19.789,9.575-40.743,17.202-59.364,28.643
			c-54.472,33.472-106.695,70.112-149.592,118.36c-2.766,3.112-5.588,6.175-8.323,9.314c-2.843,3.263-2.435,4.804,1.678,5.82
			c3.392,0.839,6.842,1.477,10.293,2.038c22.152,3.602,41.219,13.417,58.419,27.703c19.737,16.393,35.806,35.678,48.56,57.847
			c9.005,15.653,13.964,32.215,12.875,50.541c-1.233,20.766-4.345,41.05-12.603,60.298c-11.845,27.609-33.144,43.231-62.353,48.134
			c-31.723,5.325-63.173,2.933-94.035-5.725c-14.072-3.948-26.755-10.705-36.809-21.998c-9.487-10.657-14.186-23.318-16.58-36.864
			c-6.591-37.305-5.388-74.014,10.191-109.294c9.656-21.866,21.488-42.5,35.525-61.856c4.002-5.519,3.743-6.366-2.863-7.286
			c-12.536-1.745-25.086-3.394-37.633-5.063c-4.622-0.615-7.783,0.999-10.155,5.326c-18.073,32.969-38.618,64.18-65.249,91.047
			c-16.771,16.92-32.715,34.711-50.127,50.935c-45.017,41.949-91.545,82.105-144.606,113.882
			c-18.232,10.919-37.545,19.41-57.833,25.827c-11.111,3.514-22.102,2.627-33.091,0.441c-7.586-1.509-10.155-8.33-5.667-15.674
			c3.974-6.503,8.473-12.856,13.658-18.419c19.524-20.95,39.197-41.774,59.269-62.197c11.663-11.867,24.235-22.839,36.272-34.346
			c1.25-1.195,2.631-3.694,2.159-4.866c-0.519-1.29-3.043-2.242-4.81-2.48c-7.171-0.964-7.4-1.559-6.749-8.944
			c0.848-9.614,0.859-19.3,1.6-28.926c2.122-27.56,12.283-52.366,26.501-75.704c16.276-26.716,35.734-50.958,57.4-73.474
			c25.12-26.106,52.07-50.115,81.478-71.324c27.859-20.092,58.399-34.188,92.44-39.472c8.83-1.371,18.254-0.009,27.26,1.191
			c7.918,1.055,10.754,5.372,11.335,13.484c1.476,20.578-2.152,40.467-8.017,60.051c-3,10.017-6.157,19.987-9.243,29.979
			C491.026,175.469,491.326,176.017,491.626,176.564z M577.791,458.784c0.052-0.34,0.104-0.68,0.156-1.019
			c1.332,0,2.667,0.056,3.996-0.011c3.16-0.161,6.325-0.301,9.475-0.588c28.623-2.607,49.973-15.792,62.363-42.418
			c7.868-16.909,10.786-34.826,12.448-53.184c1.165-12.866,0.221-25.225-4.928-37.17c-11.911-27.629-30.07-50.41-53.084-69.629
			c-15.19-12.685-32.003-21.419-51.754-24.254c-4.611-0.662-8.123,0.106-10.785,4.167c-4.014,6.125-8.309,12.066-12.313,18.197
			c-11.966,18.32-22.348,37.542-29.455,58.231c-10.955,31.89-10.728,64.516-3.449,97.069c5.404,24.171,20.903,39.414,44.915,45.257
			C555.987,456.013,566.975,457.047,577.791,458.784z M240.966,339.093c-0.151,2.89-0.483,4.908-0.293,6.874
			c0.173,1.786,0.916,3.517,1.407,5.272c1.935-0.57,4.328-0.6,5.737-1.792c19.059-16.13,37.813-32.623,56.972-48.634
			c42.621-35.618,86.322-69.725,136.037-95.246c6.056-3.109,10.84-7.811,13.33-14.346c5.866-15.393,12.129-30.661,17.289-46.291
			c5.917-17.922,9.774-36.362,9.519-55.413c-0.073-5.468-2-7.044-7.165-5.717c-15.383,3.953-30.232,9.3-44.196,17.002
			c-31.318,17.274-58.627,39.909-84.715,64.02c-30.073,27.794-56.785,58.462-78.759,93.256
			C250.22,283.269,241.325,310.226,240.966,339.093z M143.368,486.488c0.245,0.542,0.49,1.083,0.735,1.625
			c2.398-0.406,5.075-0.26,7.149-1.308c12.333-6.228,24.95-12.043,36.694-19.262c51.34-31.561,96.755-70.713,140.599-111.716
			c15.316-14.323,29.454-29.905,44.12-44.923c18.088-18.521,34.823-38.115,47.952-60.564c1.513-2.586,3.278-5.042,4.577-7.727
			c0.458-0.947-0.126-2.398-0.234-3.619c-1.077,0.172-2.341,0.039-3.2,0.566c-4.542,2.789-9.187,5.474-13.423,8.687
			c-22.162,16.81-44.589,33.303-66.199,50.801c-23.809,19.278-47.044,39.285-70.124,59.439
			c-14.923,13.032-29.434,26.575-43.567,40.462c-24.585,24.156-48.791,48.698-73.014,73.22
			C151.061,476.595,147.373,481.697,143.368,486.488z M478.69,208.29c1.829,0.817,2.512,1.34,3.239,1.414
			c14.387,1.453,28.763,3.093,43.183,4.058c2.825,0.189,6.48-1.598,8.623-3.651c5.627-5.394,10.441-11.625,15.922-17.184
			c12.723-12.904,25.667-25.59,38.462-38.423c1.169-1.173,1.91-2.772,2.85-4.174c-0.405-0.396-0.809-0.792-1.214-1.187
			c-1.589,0.7-3.225,1.309-4.759,2.115c-7.217,3.792-14.38,7.686-21.608,11.456c-25.815,13.464-51.662,26.865-77.45,40.381
			C483.576,204.331,481.552,206.212,478.69,208.29z"/>
		<path fill="rgba(255,255,255,.87)" d="M577.791,458.784c-10.817-1.737-21.805-2.771-32.416-5.353c-24.012-5.843-39.51-21.086-44.915-45.257
			c-7.278-32.552-7.505-65.179,3.449-97.069c7.107-20.69,17.49-39.911,29.455-58.231c4.004-6.131,8.299-12.072,12.313-18.197
			c2.661-4.061,6.173-4.829,10.785-4.167c19.751,2.836,36.564,11.569,51.754,24.254c23.014,19.219,41.173,42,53.084,69.629
			c5.149,11.944,6.093,24.304,4.928,37.17c-1.662,18.358-4.579,36.274-12.448,53.184c-12.39,26.626-33.74,39.811-62.363,42.418
			c-3.15,0.287-6.315,0.427-9.475,0.588c-1.329,0.068-2.664,0.011-3.996,0.011C577.896,458.104,577.844,458.444,577.791,458.784z"/>
		<path fill="rgba(255,255,255,.87)" d="M240.966,339.093c0.36-28.867,9.254-55.824,25.162-81.014c21.974-34.794,48.687-65.462,78.759-93.256
			c26.088-24.111,53.397-46.747,84.715-64.02c13.964-7.702,28.813-13.049,44.196-17.002c5.166-1.327,7.092,0.249,7.165,5.717
			c0.255,19.051-3.602,37.491-9.519,55.413c-5.16,15.63-11.423,30.898-17.289,46.291c-2.49,6.535-7.273,11.237-13.33,14.346
			c-49.715,25.522-93.415,59.629-136.037,95.246c-19.158,16.01-37.913,32.503-56.972,48.634c-1.409,1.192-3.802,1.222-5.737,1.792
			c-0.491-1.755-1.234-3.486-1.407-5.272C240.482,344,240.815,341.983,240.966,339.093z"/>
		<path fill="rgba(255,255,255,.87)" d="M143.368,486.488c4.005-4.791,7.693-9.894,12.066-14.32c24.223-24.521,48.429-49.064,73.014-73.22
			c14.133-13.887,28.644-27.43,43.567-40.462c23.079-20.154,46.314-40.161,70.124-59.439c21.611-17.498,44.037-33.991,66.199-50.801
			c4.236-3.213,8.881-5.898,13.423-8.687c0.859-0.527,2.123-0.394,3.2-0.566c0.108,1.221,0.692,2.672,0.234,3.619
			c-1.3,2.685-3.064,5.141-4.577,7.727c-13.129,22.45-29.864,42.043-47.952,60.564c-14.666,15.017-28.804,30.6-44.12,44.923
			c-43.844,41.003-89.26,80.155-140.599,111.716c-11.744,7.219-24.361,13.034-36.694,19.262c-2.074,1.047-4.751,0.902-7.149,1.308
			C143.859,487.571,143.613,487.03,143.368,486.488z"/>
		<path fill="rgba(255,255,255,.87)" d="M478.69,208.29c2.863-2.078,4.886-3.959,7.248-5.197c25.788-13.515,51.635-26.917,77.45-40.381
			c7.228-3.77,14.391-7.664,21.608-11.456c1.533-0.806,3.17-1.415,4.759-2.115c0.405,0.396,0.809,0.792,1.214,1.187
			c-0.94,1.401-1.681,3.001-2.85,4.174c-12.795,12.833-25.739,25.519-38.462,38.423c-5.481,5.559-10.295,11.791-15.922,17.184
			c-2.143,2.054-5.797,3.84-8.623,3.651c-14.421-0.965-28.797-2.605-43.183-4.058C481.201,209.63,480.519,209.106,478.69,208.29z"/>
	</g>
</g>
<path display="none" fill="none" stroke="#39B54A" stroke-width="15" stroke-linecap="square" d="M252.449,347.292
	c0,0-42.697-86.517,100-210.112s158.427-76.404,161.798-73.034c3.371,3.371-13.657,179.945-247.645,353.936
	s-58.497-22.499-58.497-22.499S458.592,149.596,671.582,86.599S685.081,67.1,559.087,196.093s-35.998,260.987,49.497,244.488
	s97.495-68.997,91.495-133.493s-89.995-119.994-208.49-116.994"/>
<g>
	<path display="none" fill="#FFFFFF" d="M-83.962,790c0-320.272,0-640.545,0-960.909c426.854,0,853.745,0,1280.799,0
		c0,320.242,0,640.575,0,960.909C769.98,790,343.028,790-83.962,790z M491.626,167.564c-0.3-0.547-0.599-1.094-0.899-1.641
		c3.086-9.991,6.243-19.962,9.243-29.979c5.865-19.584,9.493-39.473,8.017-60.051c-0.582-8.113-3.417-12.43-11.335-13.484
		c-9.006-1.2-18.431-2.562-27.26-1.191c-34.041,5.284-64.581,19.38-92.44,39.472c-29.408,21.208-56.358,45.218-81.478,71.324
		c-21.665,22.516-41.124,46.758-57.4,73.474c-14.218,23.338-24.379,48.144-26.501,75.704c-0.741,9.626-0.752,19.312-1.6,28.926
		c-0.651,7.385-0.422,7.98,6.749,8.944c1.767,0.238,4.291,1.19,4.81,2.48c0.472,1.173-0.908,3.671-2.159,4.866
		c-12.036,11.507-24.608,22.478-36.272,34.346c-20.072,20.424-39.745,41.247-59.269,62.197c-5.185,5.564-9.684,11.916-13.658,18.419
		c-4.488,7.343-1.919,14.165,5.667,15.674c10.989,2.186,21.981,3.073,33.091-0.441c20.288-6.417,39.602-14.909,57.833-25.827
		c53.062-31.777,99.589-71.933,144.606-113.882c17.411-16.224,33.355-34.015,50.127-50.935
		c26.63-26.867,47.176-58.077,65.249-91.047c2.372-4.326,5.533-5.94,10.155-5.326c12.547,1.669,25.097,3.317,37.633,5.063
		c6.606,0.92,6.865,1.767,2.863,7.286c-14.037,19.356-25.869,39.99-35.525,61.856c-15.579,35.28-16.782,71.989-10.191,109.294
		c2.393,13.546,7.093,26.208,16.58,36.864c10.053,11.293,22.737,18.05,36.809,21.998c30.861,8.658,62.312,11.05,94.035,5.725
		c29.209-4.903,50.508-20.525,62.353-48.134c8.258-19.248,11.37-39.532,12.603-60.298c1.089-18.326-3.87-34.889-12.875-50.541
		c-12.754-22.168-28.822-41.454-48.56-57.847c-17.2-14.285-36.267-24.101-58.419-27.703c-3.451-0.561-6.901-1.2-10.293-2.038
		c-4.113-1.017-4.521-2.558-1.678-5.82c2.735-3.139,5.556-6.202,8.323-9.314c42.896-48.249,95.12-84.888,149.592-118.36
		c18.62-11.442,39.575-19.069,59.364-28.643c2.612-1.264,4.634-3.745,6.93-5.663c-2.841-1.998-5.669-4.017-8.542-5.97
		c-0.37-0.252-0.977-0.141-1.468-0.232c-11.857-2.205-22.988-0.501-33.886,4.936c-47.708,23.798-95.702,47.027-143.287,71.067
		c-33.754,17.052-67.005,35.097-100.537,52.591C496.609,166.805,494.003,166.965,491.626,167.564z"/>
	<path fill="rgba(255,255,255,.87)" d="M524.84,180.28c2.377-0.599,4.983-0.758,7.097-1.861c33.532-17.493,66.784-35.539,100.537-52.591
		c47.585-24.04,95.579-47.269,143.287-71.067c10.898-5.436,22.029-7.141,33.886-4.936c0.491,0.091,1.097-0.02,1.468,0.232
		c2.872,1.953,8.318,1.948,8.542,5.97s-4.318,4.399-6.93,5.663c-19.789,9.575-40.743,17.202-59.364,28.643
		c-54.472,33.472-106.695,70.112-149.592,118.36c-0.01,0.012-0.021,0.023-0.031,0.035c-17.79,20.004,4.223,18.425,20.821,25.931
		c10.05,4.545,19.949,9.456,29.396,15.163c18.641,11.261,35.489,25.517,48.18,43.327c25.73,36.11,32.955,85.413,13.732,126.086
		c-42.605,90.144-184.183,71.794-212.772-20.133c-17.928-57.653,14.495-118.922,47.515-164.453c4.002-5.519,3.743-6.366-2.863-7.286
		c-12.536-1.745-25.086-3.394-37.633-5.063c-4.622-0.615-7.783,0.999-10.155,5.326c-18.073,32.969-38.618,64.18-65.249,91.047
		c-16.771,16.92-32.715,34.711-50.126,50.935c-55.117,51.359-115.516,106.815-186.837,134.319
		c-8.905,3.434-71.849,18.776-54.36-9.842c3.974-6.503,8.473-12.856,13.658-18.419c19.524-20.95,39.197-41.774,59.269-62.197
		c11.663-11.867,24.235-22.839,36.272-34.346c1.25-1.195,2.631-3.694,2.159-4.866c-0.519-1.29-9.959-3.708-9.959-40.35
		c2.122-27.56,12.283-52.366,26.501-75.704c16.276-26.716,35.734-50.958,57.4-73.474c25.12-26.106,52.07-50.115,81.478-71.324
		c27.859-20.092,58.399-34.188,92.44-39.472c8.83-1.371,18.254-0.009,27.26,1.191c7.918,1.055,10.754,5.372,11.335,13.484
		c1.476,20.578-2.152,40.467-8.017,60.051c-3,10.017-6.157,19.987-9.243,29.979C524.241,179.186,524.541,179.733,524.84,180.28z
		 M611.223,463.003c11.206-0.214,22.229-2.527,32.027-6.978c31.375-14.251,53.941-46.276,56.459-80.687
		c1.324-18.093-2.266-42.339-10.919-58.526c-11.084-20.736-29.321-43.268-47.359-58.331c-15.19-12.685-32.003-21.419-51.754-24.254
		c-4.611-0.662-8.123,0.106-10.785,4.167c-4.014,6.125-8.309,12.066-12.313,18.197c-11.966,18.32-22.348,37.542-29.455,58.232
		c-12.436,36.203-16.661,82.866,5.843,115.852C557.902,452.562,585.063,463.502,611.223,463.003z M274.18,342.809
		c-0.151,2.89-0.483,4.908-0.293,6.874c0.173,1.786,0.916,3.517,1.407,5.272c1.935-0.57,4.328-0.6,5.737-1.792
		c19.059-16.13,37.813-32.623,56.972-48.634c42.621-35.618,86.322-69.725,136.037-95.246c6.056-3.109,10.84-7.811,13.33-14.346
		c5.866-15.393,12.129-30.661,17.289-46.291c5.917-17.922,9.774-36.362,9.519-55.413c-0.073-5.468-2-7.044-7.165-5.717
		c-15.383,3.953-30.232,9.3-44.196,17.002c-31.318,17.274-58.627,39.909-84.715,64.02c-30.073,27.794-56.785,58.462-78.759,93.256
		C283.434,286.985,274.54,313.942,274.18,342.809z M176.583,490.204c0.245,0.542,0.49,1.083,0.735,1.625
		c2.398-0.406,5.075-0.26,7.149-1.308c12.333-6.228,24.95-12.043,36.694-19.262c51.34-31.561,96.755-70.713,140.599-111.716
		c15.316-14.323,29.454-29.905,44.12-44.923c18.088-18.521,34.823-38.115,47.952-60.564c1.513-2.586,3.278-5.042,4.577-7.727
		c0.458-0.947-0.126-2.398-0.234-3.619c-1.077,0.172-2.341,0.039-3.2,0.566c-4.542,2.789-9.187,5.474-13.423,8.687
		c-22.162,16.81-44.589,33.303-66.199,50.801c-23.809,19.278-47.044,39.285-70.124,59.439
		c-14.923,13.032-29.434,26.575-43.567,40.462c-24.585,24.156-48.791,48.698-73.014,73.22
		C184.276,480.311,180.587,485.414,176.583,490.204z M511.904,212.006c1.829,0.817,2.512,1.34,3.239,1.414
		c14.387,1.453,28.763,3.093,43.183,4.058c2.825,0.189,6.48-1.598,8.623-3.651c5.627-5.394,10.441-11.625,15.922-17.184
		c12.723-12.904,25.667-25.59,38.462-38.423c1.169-1.173,1.91-2.772,2.85-4.174c-0.405-0.396-0.809-0.792-1.214-1.187
		c-1.589,0.7-3.225,1.309-4.759,2.115c-7.217,3.792-14.38,7.686-21.608,11.456c-25.815,13.464-51.662,26.865-77.45,40.381
		C516.791,208.047,514.767,209.928,511.904,212.006z"/>
	<path display="none" fill="#FFFFFF" d="M577.791,449.784c-10.817-1.737-21.805-2.771-32.416-5.353
		c-24.012-5.843-39.51-21.086-44.915-45.257c-7.278-32.552-7.505-65.179,3.449-97.069c7.107-20.69,17.49-39.911,29.455-58.231
		c4.004-6.131,8.299-12.072,12.313-18.197c2.661-4.061,6.173-4.829,10.785-4.167c19.751,2.836,36.564,11.569,51.754,24.254
		c23.014,19.219,41.173,42,53.084,69.629c5.149,11.944,6.093,24.304,4.928,37.17c-1.662,18.358-4.579,36.274-12.448,53.184
		c-12.39,26.626-33.74,39.811-62.363,42.418c-3.15,0.287-6.315,0.427-9.475,0.588c-1.329,0.068-2.664,0.011-3.996,0.011
		C577.896,449.104,577.844,449.444,577.791,449.784z"/>
	<path display="none" fill="#FFFFFF" d="M240.966,330.093c0.36-28.867,9.254-55.824,25.162-81.014
		c21.974-34.794,48.687-65.462,78.759-93.256c26.088-24.111,53.397-46.747,84.715-64.02c13.964-7.702,28.813-13.049,44.196-17.002
		c5.166-1.327,7.092,0.249,7.165,5.717c0.255,19.051-3.602,37.491-9.519,55.413c-5.16,15.63-11.423,30.898-17.289,46.291
		c-2.49,6.535-7.273,11.237-13.33,14.346c-49.715,25.522-93.415,59.629-136.037,95.246c-19.158,16.01-37.913,32.503-56.972,48.634
		c-1.409,1.192-3.802,1.222-5.737,1.792c-0.491-1.755-1.234-3.486-1.407-5.272C240.482,335,240.815,332.983,240.966,330.093z"/>
	<path display="none" fill="#FFFFFF" d="M143.368,477.488c4.005-4.791,7.693-9.894,12.066-14.32
		c24.223-24.521,48.429-49.064,73.014-73.22c14.133-13.887,28.644-27.43,43.567-40.462c23.079-20.154,46.314-40.161,70.124-59.439
		c21.611-17.498,44.037-33.991,66.199-50.801c4.236-3.213,8.881-5.898,13.423-8.687c0.859-0.527,2.123-0.394,3.2-0.566
		c0.108,1.221,0.692,2.672,0.234,3.619c-1.3,2.685-3.064,5.141-4.577,7.727c-13.129,22.45-29.864,42.043-47.952,60.564
		c-14.666,15.017-28.804,30.6-44.12,44.923c-43.844,41.003-89.26,80.155-140.599,111.716c-11.744,7.219-24.361,13.034-36.694,19.262
		c-2.074,1.047-4.751,0.902-7.149,1.308C143.859,478.571,143.613,478.03,143.368,477.488z"/>
	<path display="none" fill="#FFFFFF" d="M478.69,199.29c2.863-2.078,4.886-3.959,7.248-5.197
		c25.788-13.515,51.635-26.917,77.45-40.381c7.228-3.77,14.391-7.664,21.608-11.456c1.533-0.806,3.17-1.415,4.759-2.115
		c0.405,0.396,0.809,0.792,1.214,1.187c-0.94,1.401-1.681,3.001-2.85,4.174c-12.795,12.833-25.739,25.519-38.462,38.423
		c-5.481,5.559-10.295,11.791-15.922,17.184c-2.143,2.054-5.797,3.84-8.623,3.651c-14.421-0.965-28.797-2.605-43.183-4.058
		C481.201,200.63,480.519,200.106,478.69,199.29z"/>
</g>
</svg>
