<?xml version="1.0" encoding="utf-8"?>
<!-- Generator: Adobe Illustrator 17.0.0, SVG Export Plug-In . SVG Version: 6.00 Build 0)  -->
<!DOCTYPE svg PUBLIC "-//W3C//DTD SVG 1.1//EN" "http://www.w3.org/Graphics/SVG/1.1/DTD/svg11.dtd">
<svg version="1.1" id="Layer_1" xmlns="http://www.w3.org/2000/svg" xmlns:xlink="http://www.w3.org/1999/xlink" x="0px" y="0px"
	 width="720px" height="720px" viewBox="0 0 720 720" enable-background="new 0 0 720 720" xml:space="preserve">
<filter  id="AI_GaussianBlur_7">
	<feGaussianBlur  stdDeviation="7"></feGaussianBlur>
</filter>
<filter  id="AI_GaussianBlur_4">
	<feGaussianBlur  stdDeviation="4"></feGaussianBlur>
</filter>
<g id="Layer_1_1_" display="none">
	<rect x="-0.5" y="0.5" display="inline" fill="#263238" stroke="#000000" stroke-miterlimit="10" width="720" height="720"/>
</g>
<g id="Layer_5" opacity="0.5">
	<g id="_x31__5_" filter="url(#AI_GaussianBlur_4)">
		<polygon fill="none" stroke="#FFFFFF" stroke-miterlimit="10" points="694,360.706 360.706,694 26,359.294 359.294,26 		"/>
		
			<rect x="124.341" y="123.341" transform="matrix(0.7071 -0.7071 0.7071 0.7071 -149.1157 360.0005)" fill="none" stroke="#FFFFFF" stroke-width="12" stroke-linejoin="round" stroke-miterlimit="10" width="471.319" height="473.316"/>
	</g>
	
		<rect id="_x32__3_" x="124.341" y="123.341" transform="matrix(0.7071 -0.7071 0.7071 0.7071 -149.1157 360.0005)" fill="none" stroke="#FFFFFF" stroke-width="5" stroke-linejoin="round" stroke-miterlimit="10" width="471.319" height="473.316"/>
	
		<rect id="_x33__3_" x="124.341" y="123.341" transform="matrix(0.7071 -0.7071 0.7071 0.7071 -149.1157 360.0005)" fill="none" stroke="#FFFFFF" stroke-linejoin="round" stroke-miterlimit="10" width="471.319" height="473.316"/>
</g>
<g id="Layer_9" opacity="0.5">
	<g id="_x31__10_" opacity="0.7" filter="url(#AI_GaussianBlur_7)">
		
			<rect x="183.252" y="182.504" transform="matrix(0.7071 -0.7071 0.7071 0.7071 -149.1167 359.9992)" fill="none" stroke="#1DE9B6" stroke-width="40" stroke-miterlimit="10" width="353.494" height="354.991"/>
	</g>
	<g id="_x32__6_" filter="url(#AI_GaussianBlur_7)">
		
			<rect x="183.252" y="182.504" transform="matrix(0.7071 -0.7071 0.7071 0.7071 -149.1167 359.9992)" fill="none" stroke="#1DE9B6" stroke-width="40" stroke-miterlimit="10" width="353.494" height="354.991"/>
	</g>
	<g id="_x33__6_" display="none" filter="url(#AI_GaussianBlur_7)">
		
			<rect x="183.252" y="182.504" transform="matrix(0.7071 -0.7071 0.7071 0.7071 -149.1167 359.9992)" display="inline" fill="none" stroke="#1DE9B6" stroke-width="9" stroke-miterlimit="10" width="353.494" height="354.991"/>
	</g>
</g>
<g id="Layer_2" opacity="0.5">
	<g id="_x31_" filter="url(#AI_GaussianBlur_4)">
		
			<radialGradient id="SVGID_1_" cx="786" cy="383" r="167.231" gradientTransform="matrix(1 0 0 1 -426 -23)" gradientUnits="userSpaceOnUse">
			<stop  offset="0" style="stop-color:#FFFFFF;stop-opacity:0"/>
			<stop  offset="0.8587" style="stop-color:#FFFFFF;stop-opacity:0.103"/>
			<stop  offset="1" style="stop-color:#FFFFFF;stop-opacity:0.12"/>
		</radialGradient>
		<polygon fill="url(#SVGID_1_)" stroke="#FFFFFF" stroke-miterlimit="10" points="527.231,360.354 360.354,527.231 
			192.769,359.646 359.646,192.769 		"/>
		
			<rect x="242.007" y="241.506" transform="matrix(0.7071 -0.7071 0.7071 0.7071 -149.1167 360.0003)" fill="none" stroke="#FFFFFF" stroke-width="9" stroke-miterlimit="10" width="235.988" height="236.988"/>
	</g>
	
		<rect id="_x32_" x="242.007" y="241.506" transform="matrix(0.7071 -0.7071 0.7071 0.7071 -149.1167 360.0003)" fill="none" stroke="#FFFFFF" stroke-width="4" stroke-linejoin="round" stroke-miterlimit="10" width="235.988" height="236.988"/>
	
		<rect id="_x33_" x="242.007" y="241.506" transform="matrix(0.7071 -0.7071 0.7071 0.7071 -149.1167 360.0003)" fill="none" stroke="#FFFFFF" stroke-linejoin="round" stroke-miterlimit="10" width="235.988" height="236.988"/>
</g>
<g id="Layer_3" opacity="0.5">
	<g id="_x31__1_" filter="url(#AI_GaussianBlur_4)">
		
			<radialGradient id="SVGID_2_" cx="786" cy="383" r="83.5" gradientTransform="matrix(1 0 0 1 -426 -23)" gradientUnits="userSpaceOnUse">
			<stop  offset="0" style="stop-color:#FFFFFF;stop-opacity:0"/>
			<stop  offset="0.8587" style="stop-color:#FFFFFF;stop-opacity:0.103"/>
			<stop  offset="1" style="stop-color:#FFFFFF;stop-opacity:0.12"/>
		</radialGradient>
		<polygon fill="url(#SVGID_2_)" stroke="#FFFFFF" stroke-miterlimit="10" points="443.5,360.177 360.177,443.5 276.5,359.823 
			359.823,276.5 		"/>
		
			<rect x="301.083" y="300.834" transform="matrix(0.7071 -0.7071 0.7071 0.7071 -149.1167 359.9988)" fill="none" stroke="#FFFFFF" stroke-width="7" stroke-miterlimit="10" width="117.831" height="118.33"/>
	</g>
	
		<rect id="_x32__1_" x="301.083" y="300.834" transform="matrix(0.7071 -0.7071 0.7071 0.7071 -149.1167 359.9988)" fill="none" stroke="#FFFFFF" stroke-width="3" stroke-linejoin="round" stroke-miterlimit="10" width="117.831" height="118.33"/>
	
		<rect id="_x33__1_" x="301.083" y="300.834" transform="matrix(0.7071 -0.7071 0.7071 0.7071 -149.1167 359.9988)" fill="none" stroke="#FFFFFF" stroke-linejoin="round" stroke-miterlimit="10" width="117.831" height="118.33"/>
</g>
<g id="Layer_10" opacity="0.5">
	<g id="_x31__8_" filter="url(#AI_GaussianBlur_4)">
		
			<rect x="315.902" y="315.715" transform="matrix(0.7071 -0.7071 0.7071 0.7071 -149.1165 359.9996)" fill="none" stroke="#1DE9B6" stroke-width="9" stroke-miterlimit="10" width="88.195" height="88.569"/>
	</g>
	<g id="_x32__7_" filter="url(#AI_GaussianBlur_4)">
		
			<rect x="315.902" y="315.715" transform="matrix(0.7071 -0.7071 0.7071 0.7071 -149.1165 359.9996)" fill="none" stroke="#1DE9B6" stroke-width="7" stroke-miterlimit="10" width="88.195" height="88.569"/>
	</g>
	<g id="_x33__7_" display="none" filter="url(#AI_GaussianBlur_4)">
		
			<rect x="315.902" y="315.715" transform="matrix(0.7071 -0.7071 0.7071 0.7071 -149.1165 359.9996)" display="inline" fill="none" stroke="#1DE9B6" stroke-width="5" stroke-miterlimit="10" width="88.195" height="88.569"/>
	</g>
</g>
<g id="Layer_4" opacity="0.5">
	<g id="_x31__3_" filter="url(#AI_GaussianBlur_4)">
		
			<radialGradient id="SVGID_3_" cx="786" cy="383" r="41.5" gradientTransform="matrix(1 0 0 1 -426 -23)" gradientUnits="userSpaceOnUse">
			<stop  offset="0" style="stop-color:#FFFFFF;stop-opacity:0"/>
			<stop  offset="0.8587" style="stop-color:#FFFFFF;stop-opacity:0.103"/>
			<stop  offset="1" style="stop-color:#FFFFFF;stop-opacity:0.12"/>
		</radialGradient>
		<polygon fill="url(#SVGID_3_)" stroke="#FFFFFF" stroke-miterlimit="10" points="401.5,360.088 360.088,401.5 318.5,359.912 
			359.912,318.5 		"/>
		
			<rect x="330.722" y="330.595" transform="matrix(0.7071 -0.7071 0.7071 0.7071 -149.1157 360.0012)" fill="none" stroke="#FFFFFF" stroke-width="5" stroke-miterlimit="10" width="58.56" height="58.808"/>
	</g>
	
		<rect id="_x32__2_" x="330.722" y="330.595" transform="matrix(0.7071 -0.7071 0.7071 0.7071 -149.1157 360.0012)" fill="none" stroke="#FFFFFF" stroke-width="2" stroke-linejoin="round" stroke-miterlimit="10" width="58.56" height="58.808"/>
	
		<rect id="_x33__2_" x="330.722" y="330.595" transform="matrix(0.7071 -0.7071 0.7071 0.7071 -149.1157 360.0012)" fill="none" stroke="#FFFFFF" stroke-linejoin="round" stroke-miterlimit="10" width="58.56" height="58.808"/>
</g>
<g id="Layer_6" opacity="0.5">
	<g id="_x31__7_" filter="url(#AI_GaussianBlur_4)">
		
			<radialGradient id="SVGID_4_" cx="786" cy="383" r="20.5" gradientTransform="matrix(1 0 0 1 -426 -23)" gradientUnits="userSpaceOnUse">
			<stop  offset="0" style="stop-color:#FFFFFF;stop-opacity:0"/>
			<stop  offset="0.8587" style="stop-color:#FFFFFF;stop-opacity:0.103"/>
			<stop  offset="1" style="stop-color:#FFFFFF;stop-opacity:0.12"/>
		</radialGradient>
		<polygon fill="url(#SVGID_4_)" stroke="#FFFFFF" stroke-miterlimit="10" points="380.5,360.043 360.043,380.5 339.5,359.957 
			359.957,339.5 		"/>
		
			<rect x="345.535" y="345.474" transform="matrix(0.7071 -0.7071 0.7071 0.7071 -149.1169 360)" fill="none" stroke="#FFFFFF" stroke-width="3" stroke-miterlimit="10" width="28.93" height="29.053"/>
	</g>
	
		<rect id="_x32__4_" x="345.535" y="345.474" transform="matrix(0.7071 -0.7071 0.7071 0.7071 -149.1169 360)" fill="none" stroke="#FFFFFF" stroke-linejoin="round" stroke-miterlimit="10" width="28.93" height="29.053"/>
	
		<rect id="_x33__4_" x="345.535" y="345.474" transform="matrix(0.7071 -0.7071 0.7071 0.7071 -149.1169 360)" fill="none" stroke="#FFFFFF" stroke-width="0.5" stroke-linejoin="round" stroke-miterlimit="10" width="28.93" height="29.053"/>
</g>
<g id="Layer_8" display="none">
	<g id="_x31__9_" display="inline" filter="url(#AI_GaussianBlur_7)">
		
			<rect x="352.944" y="352.914" transform="matrix(0.7071 -0.7071 0.7071 0.7071 -149.117 360.0002)" fill="none" stroke="#9C27B0" stroke-width="3" stroke-miterlimit="10" width="14.112" height="14.172"/>
	</g>
	
		<rect id="_x32__5_" x="352.944" y="352.914" transform="matrix(0.7071 -0.7071 0.7071 0.7071 -149.117 360.0002)" display="inline" opacity="0.5" fill="#FFFFFF" stroke="#4DD0E1" stroke-linejoin="round" stroke-miterlimit="10" enable-background="new    " width="14.112" height="14.172"/>
	
		<rect id="_x33__5_" x="352.944" y="352.914" transform="matrix(0.7071 -0.7071 0.7071 0.7071 -149.117 360.0002)" display="inline" fill="none" stroke="#E0F7FA" stroke-width="0.5" stroke-linejoin="round" stroke-miterlimit="10" width="14.112" height="14.172"/>
</g>
<g id="lines" display="none" opacity="0.7">
	
		<line display="inline" opacity="0.4" fill="none" stroke="#FFFFFF" stroke-width="5" stroke-linecap="round" stroke-linejoin="round" stroke-miterlimit="10" enable-background="new    " x1="28.769" y1="194.646" x2="195.646" y2="27.769"/>
	
		<line display="inline" opacity="0.5" fill="none" stroke="#FFFFFF" stroke-width="4" stroke-miterlimit="10" enable-background="new    " x1="195.5" y1="277.823" x2="278.823" y2="194.5"/>
	
		<line display="inline" opacity="0.6" fill="none" stroke="#FFFFFF" stroke-width="3" stroke-linecap="round" stroke-linejoin="round" stroke-miterlimit="10" enable-background="new    " x1="278.5" y1="318.912" x2="319.912" y2="277.5"/>
	
		<line display="inline" opacity="0.7" fill="none" stroke="#FFFFFF" stroke-width="2" stroke-miterlimit="10" enable-background="new    " x1="319.5" y1="338.957" x2="339.957" y2="318.5"/>
	
		<line display="inline" opacity="0.8" fill="none" stroke="#FFFFFF" stroke-linecap="round" stroke-linejoin="round" stroke-miterlimit="10" enable-background="new    " x1="340" y1="349.979" x2="349.979" y2="340"/>
</g>
</svg>
