<?xml version="1.0" encoding="utf-8"?>
<!-- Generator: Adobe Illustrator 17.0.0, SVG Export Plug-In . SVG Version: 6.00 Build 0)  -->
<!DOCTYPE svg PUBLIC "-//W3C//DTD SVG 1.1//EN" "http://www.w3.org/Graphics/SVG/1.1/DTD/svg11.dtd">
<svg version="1.1" id="Layer_1" xmlns="http://www.w3.org/2000/svg" xmlns:xlink="http://www.w3.org/1999/xlink" x="0px" y="0px"
	 width="960px" height="560px" viewBox="0 0 960 560" xml:space="preserve">
<g>
	<path fill="rgba(255,255,255,.87)" d="M524.84,180.28c2.377-0.599,4.983-0.758,7.097-1.861c33.532-17.493,66.784-35.539,100.537-52.591
		c47.585-24.04,95.579-47.269,143.287-71.067c10.898-5.436,22.029-7.141,33.886-4.936c0.491,0.091,1.097-0.02,1.468,0.232
		c2.872,1.953,8.318,1.948,8.542,5.97s-4.318,4.399-6.93,5.663c-19.789,9.575-40.743,17.202-59.364,28.643
		c-54.472,33.472-106.695,70.112-149.592,118.36c-0.01,0.012-0.021,0.023-0.031,0.035c-17.79,20.004,4.223,18.425,20.821,25.931
		c10.05,4.545,19.949,9.456,29.396,15.163c18.641,11.261,35.489,25.517,48.18,43.327c25.73,36.11,32.955,85.413,13.732,126.086
		c-42.605,90.144-184.183,71.794-212.772-20.133c-17.928-57.653,14.495-118.922,47.515-164.453c4.002-5.519,3.743-6.366-2.863-7.286
		c-12.536-1.745-25.086-3.394-37.633-5.063c-4.622-0.615-7.783,0.999-10.155,5.326c-18.073,32.969-38.618,64.18-65.249,91.047
		c-16.771,16.92-32.715,34.711-50.126,50.935c-55.117,51.359-115.516,106.815-186.837,134.319
		c-8.905,3.434-71.849,18.776-54.36-9.842c3.974-6.503,8.473-12.856,13.658-18.419c19.524-20.95,39.197-41.774,59.269-62.197
		c11.663-11.867,24.235-22.839,36.272-34.346c1.25-1.195,2.631-3.694,2.159-4.866c-0.519-1.29-9.959-3.708-9.959-40.35
		c2.122-27.56,12.283-52.366,26.501-75.704c16.276-26.716,35.734-50.958,57.4-73.474c25.12-26.106,52.07-50.115,81.478-71.324
		c27.859-20.092,58.399-34.188,92.44-39.472c8.83-1.371,18.254-0.009,27.26,1.191c7.918,1.055,10.754,5.372,11.335,13.484
		c1.476,20.578-2.152,40.467-8.017,60.051c-3,10.017-6.157,19.987-9.243,29.979C524.241,179.186,524.541,179.733,524.84,180.28z
		 M611.223,463.003c11.206-0.214,22.229-2.527,32.027-6.978c31.375-14.251,53.941-46.276,56.459-80.687
		c1.324-18.093-2.266-42.339-10.919-58.526c-11.084-20.736-29.321-43.268-47.359-58.331c-15.19-12.685-32.003-21.419-51.754-24.254
		c-4.611-0.662-8.123,0.106-10.785,4.167c-4.014,6.125-8.309,12.066-12.313,18.197c-11.966,18.32-22.348,37.542-29.455,58.232
		c-12.436,36.203-16.661,82.866,5.843,115.852C557.902,452.562,585.063,463.502,611.223,463.003z M274.18,342.809
		c-0.151,2.89-0.483,4.908-0.293,6.874c0.173,1.786,0.916,3.517,1.407,5.272c1.935-0.57,4.328-0.6,5.737-1.792
		c19.059-16.13,37.813-32.623,56.972-48.634c42.621-35.618,86.322-69.725,136.037-95.246c6.056-3.109,10.84-7.811,13.33-14.346
		c5.866-15.393,12.129-30.661,17.289-46.291c5.917-17.922,9.774-36.362,9.519-55.413c-0.073-5.468-2-7.044-7.165-5.717
		c-15.383,3.953-30.232,9.3-44.196,17.002c-31.318,17.274-58.627,39.909-84.715,64.02c-30.073,27.794-56.785,58.462-78.759,93.256
		C283.434,286.985,274.54,313.942,274.18,342.809z M176.583,490.204c0.245,0.542,0.49,1.083,0.735,1.625
		c2.398-0.406,5.075-0.26,7.149-1.308c12.333-6.228,24.95-12.043,36.694-19.262c51.34-31.561,96.755-70.713,140.599-111.716
		c15.316-14.323,29.454-29.905,44.12-44.923c18.088-18.521,34.823-38.115,47.952-60.564c1.513-2.586,3.278-5.042,4.577-7.727
		c0.458-0.947-0.126-2.398-0.234-3.619c-1.077,0.172-2.341,0.039-3.2,0.566c-4.542,2.789-9.187,5.474-13.423,8.687
		c-22.162,16.81-44.589,33.303-66.199,50.801c-23.809,19.278-47.044,39.285-70.124,59.439
		c-14.923,13.032-29.434,26.575-43.567,40.462c-24.585,24.156-48.791,48.698-73.014,73.22
		C184.276,480.311,180.587,485.414,176.583,490.204z M511.904,212.006c1.829,0.817,2.512,1.34,3.239,1.414
		c14.387,1.453,28.763,3.093,43.183,4.058c2.825,0.189,6.48-1.598,8.623-3.651c5.627-5.394,10.441-11.625,15.922-17.184
		c12.723-12.904,25.667-25.59,38.462-38.423c1.169-1.173,1.91-2.772,2.85-4.174c-0.405-0.396-0.809-0.792-1.214-1.187
		c-1.589,0.7-3.225,1.309-4.759,2.115c-7.217,3.792-14.38,7.686-21.608,11.456c-25.815,13.464-51.662,26.865-77.45,40.381
		C516.791,208.047,514.767,209.928,511.904,212.006z"/>
</g>
</svg>
