<?xml version="1.0" encoding="utf-8"?>
<!-- Generator: Adobe Illustrator 17.0.0, SVG Export Plug-In . SVG Version: 6.00 Build 0)  -->
<!DOCTYPE svg PUBLIC "-//W3C//DTD SVG 1.1//EN" "http://www.w3.org/Graphics/SVG/1.1/DTD/svg11.dtd">
<svg version="1.1" xmlns="http://www.w3.org/2000/svg" xmlns:xlink="http://www.w3.org/1999/xlink" x="0px" y="0px" width="640px"
	 height="480px" viewBox="0 0 640 480" enable-background="new 0 0 640 480" xml:space="preserve">
<g id="Layer_2" display="none">
	<linearGradient id="SVGID_1_" gradientUnits="userSpaceOnUse" x1="319.5" y1="480.5" x2="319.5" y2="0.5">
		<stop  offset="0" style="stop-color:#0097A7"/>
		<stop  offset="0.9944" style="stop-color:#009688"/>
	</linearGradient>
	
		<rect x="-0.5" y="0.5" display="inline" fill="url(#SVGID_1_)" stroke="#FF80FC" stroke-miterlimit="10" width="640" height="480"/>
</g>
<g id="Layer_1">
	<g id="_x35_" opacity="0.3">
		<g>
			<polygon fill="#FFFFFF" points="469.5,141.89 465.59,182.91 442.94,156.34 			"/>
		</g>
		<g>
			<line fill="none" stroke="#E1BEE7" stroke-miterlimit="10" x1="442.94" y1="156.34" x2="469.5" y2="141.89"/>
			<line fill="none" stroke="#E1BEE7" stroke-miterlimit="10" x1="465.59" y1="182.91" x2="469.5" y2="141.89"/>
			<line fill="none" stroke="#E1BEE7" stroke-miterlimit="10" x1="465.59" y1="182.91" x2="442.94" y2="156.34"/>
		</g>
	</g>
	<g id="_x33_" opacity="0.3">
		<g>
			<polygon fill="#FFFFFF" points="353.5,127.44 353.5,192 271.06,156.34 353.09,127.44 			"/>
		</g>
		<g>
			<line fill="none" stroke="#E1BEE7" stroke-miterlimit="10" x1="271.06" y1="156.34" x2="353.09" y2="127.44"/>
			<polyline fill="none" stroke="#E1BEE7" stroke-miterlimit="10" points="353.5,192 353.5,127.44 353.5,127 			"/>
			<line fill="none" stroke="#E1BEE7" stroke-miterlimit="10" x1="271.06" y1="156.34" x2="353.5" y2="192"/>
		</g>
	</g>
	<g id="_x31_" opacity="0.4">
		<g>
			<polygon fill="#FFFFFF" points="271.06,156.34 167.94,196.97 167.5,196.97 167.5,110.25 167.94,110.25 			"/>
		</g>
		<g>
			<polyline fill="none" stroke="#E1BEE7" stroke-linecap="round" stroke-linejoin="round" points="167.5,197 167.5,196.97 
				167.5,110.25 167.5,110 			"/>
			<line fill="none" stroke="#E1BEE7" stroke-miterlimit="10" x1="167.94" y1="110.25" x2="271.06" y2="156.34"/>
			<line fill="none" stroke="#E1BEE7" stroke-miterlimit="10" x1="271.06" y1="156.34" x2="167.94" y2="196.97"/>
		</g>
	</g>
	<g id="_x32_" opacity="0.3">
		<g>
			<polygon fill="#FFFFFF" points="167.5,110.85 167.5,197 108.56,191.5 			"/>
		</g>
		<g>
			<polyline fill="none" stroke="#E1BEE7" stroke-miterlimit="10" points="108.56,191.5 167.5,110.85 167.94,110.25 			"/>
			<polyline fill="none" stroke="#E1BEE7" stroke-miterlimit="10" points="167.5,197 167.5,110.85 167.5,110 			"/>
			<line fill="none" stroke="#E1BEE7" stroke-miterlimit="10" x1="167.5" y1="197" x2="108.56" y2="191.5"/>
		</g>
	</g>
	<g id="_x34_" opacity="0.4">
		<g>
			<polygon fill="#FFFFFF" points="442.94,156.34 353.5,191.34 353.5,127.57 			"/>
		</g>
		<g>
			<polyline fill="none" stroke="#E1BEE7" stroke-miterlimit="10" points="353.09,127.44 353.5,127.57 442.94,156.34 			"/>
			<polyline fill="none" stroke="#E1BEE7" stroke-miterlimit="10" points="442.94,156.34 353.5,191.34 353.09,191.5 			"/>
			<polyline fill="none" stroke="#E1BEE7" stroke-miterlimit="10" points="353.5,192 353.5,191.34 353.5,127.57 353.5,127 			"/>
		</g>
	</g>
	<g id="_x36_" opacity="0.4">
		<g>
			<polygon fill="#FFFFFF" points="524.97,196.97 465.68,182.93 469.5,142.89 470,142.39 			"/>
		</g>
		<g>
			<polyline fill="none" stroke="#E1BEE7" stroke-miterlimit="10" points="469.5,141.89 470,142.39 524.97,196.97 			"/>
			<polyline fill="none" stroke="#E1BEE7" stroke-miterlimit="10" points="524.97,196.97 465.68,182.93 465.59,182.91 			"/>
			<polyline fill="none" stroke="#E1BEE7" stroke-miterlimit="10" points="465.59,183.91 465.68,182.93 469.5,142.89 			"/>
		</g>
	</g>
</g>
</svg>
